<?xml version="1.0" encoding="UTF-8" standalone="no"?>
<!DOCTYPE svg PUBLIC "-//W3C//DTD SVG 1.1//EN"
 "http://www.w3.org/Graphics/SVG/1.1/DTD/svg11.dtd">
<!-- Generated by graphviz version 2.38.0 (20140413.2041)
 -->
<!-- Title: C&#45;Syncker/include/Escriba.h Pages: 1 -->
<svg width="282pt" height="84pt"
 viewBox="0.00 0.00 282.00 84.00" xmlns="http://www.w3.org/2000/svg" xmlns:xlink="http://www.w3.org/1999/xlink">
<g id="graph0" class="graph" transform="scale(1 1) rotate(0) translate(4 80)">
<title>C&#45;Syncker/include/Escriba.h</title>
<!-- Node9 -->
<g id="node1" class="node"><title>Node9</title>
<polygon fill="#bfbfbf" stroke="black" points="69.5,-56.5 69.5,-75.5 210.5,-75.5 210.5,-56.5 69.5,-56.5"/>
<text text-anchor="middle" x="140" y="-63.5" font-family="Helvetica,sans-Serif" font-size="10.00">C&#45;Syncker/include/Escriba.h</text>
</g>
<!-- Node10 -->
<g id="node2" class="node"><title>Node10</title>
<g id="a_node2"><a xlink:href="_escriba_8cpp.html" target="_top" xlink:title="C&#45;Syncker/src/Escriba.cpp">
<polygon fill="none" stroke="black" points="0,-0.5 0,-19.5 134,-19.5 134,-0.5 0,-0.5"/>
<text text-anchor="middle" x="67" y="-7.5" font-family="Helvetica,sans-Serif" font-size="10.00">C&#45;Syncker/src/Escriba.cpp</text>
</a>
</g>
</g>
<!-- Node9&#45;&gt;Node10 -->
<g id="edge1" class="edge"><title>Node9&#45;&gt;Node10</title>
<path fill="none" stroke="midnightblue" d="M119.858,-50.1008C106.721,-40.3824 90.0179,-28.0269 78.9421,-19.8339"/>
<polygon fill="midnightblue" stroke="midnightblue" points="118.15,-53.1907 128.271,-56.324 122.313,-47.5631 118.15,-53.1907"/>
</g>
<!-- Node11 -->
<g id="node3" class="node"><title>Node11</title>
<g id="a_node3"><a xlink:href="main_8cpp.html" target="_top" xlink:title="C&#45;Syncker/src/main.cpp">
<polygon fill="none" stroke="black" points="152,-0.5 152,-19.5 274,-19.5 274,-0.5 152,-0.5"/>
<text text-anchor="middle" x="213" y="-7.5" font-family="Helvetica,sans-Serif" font-size="10.00">C&#45;Syncker/src/main.cpp</text>
</a>
</g>
</g>
<!-- Node9&#45;&gt;Node11 -->
<g id="edge2" class="edge"><title>Node9&#45;&gt;Node11</title>
<path fill="none" stroke="midnightblue" d="M160.142,-50.1008C173.279,-40.3824 189.982,-28.0269 201.058,-19.8339"/>
<polygon fill="midnightblue" stroke="midnightblue" points="157.687,-47.5631 151.729,-56.324 161.85,-53.1907 157.687,-47.5631"/>
</g>
</g>
</svg>
