<?xml version="1.0" encoding="UTF-8" standalone="no"?>
<!DOCTYPE svg PUBLIC "-//W3C//DTD SVG 1.1//EN"
 "http://www.w3.org/Graphics/SVG/1.1/DTD/svg11.dtd">
<!-- Generated by graphviz version 2.38.0 (20140413.2041)
 -->
<!-- Title: C&#45;Syncker/src/Escriba.cpp Pages: 1 -->
<svg width="560pt" height="140pt"
 viewBox="0.00 0.00 559.50 140.00" xmlns="http://www.w3.org/2000/svg" xmlns:xlink="http://www.w3.org/1999/xlink">
<g id="graph0" class="graph" transform="scale(1 1) rotate(0) translate(4 136)">
<title>C&#45;Syncker/src/Escriba.cpp</title>
<!-- Node0 -->
<g id="node1" class="node"><title>Node0</title>
<polygon fill="#bfbfbf" stroke="black" points="231,-112.5 231,-131.5 365,-131.5 365,-112.5 231,-112.5"/>
<text text-anchor="middle" x="298" y="-119.5" font-family="Helvetica,sans-Serif" font-size="10.00">C&#45;Syncker/src/Escriba.cpp</text>
</g>
<!-- Node1 -->
<g id="node2" class="node"><title>Node1</title>
<g id="a_node2"><a xlink:href="_escriba_8h.html" target="_top" xlink:title="Escriba.h">
<polygon fill="none" stroke="black" points="269,-56.5 269,-75.5 327,-75.5 327,-56.5 269,-56.5"/>
<text text-anchor="middle" x="298" y="-63.5" font-family="Helvetica,sans-Serif" font-size="10.00">Escriba.h</text>
</a>
</g>
</g>
<!-- Node0&#45;&gt;Node1 -->
<g id="edge1" class="edge"><title>Node0&#45;&gt;Node1</title>
<path fill="none" stroke="midnightblue" d="M298,-112.083C298,-105.006 298,-94.8611 298,-85.9865"/>
<polygon fill="midnightblue" stroke="midnightblue" points="301.5,-85.751 298,-75.7511 294.5,-85.7511 301.5,-85.751"/>
</g>
<!-- Node2 -->
<g id="node3" class="node"><title>Node2</title>
<polygon fill="none" stroke="#bfbfbf" points="0,-0.5 0,-19.5 54,-19.5 54,-0.5 0,-0.5"/>
<text text-anchor="middle" x="27" y="-7.5" font-family="Helvetica,sans-Serif" font-size="10.00">iostream</text>
</g>
<!-- Node1&#45;&gt;Node2 -->
<g id="edge2" class="edge"><title>Node1&#45;&gt;Node2</title>
<path fill="none" stroke="midnightblue" d="M268.951,-59.9755C226.283,-52.4792 143.944,-37.5725 64.2908,-20.1879"/>
<polygon fill="midnightblue" stroke="midnightblue" points="64.607,-16.6739 54.0886,-17.9441 63.1033,-23.5105 64.607,-16.6739"/>
</g>
<!-- Node3 -->
<g id="node4" class="node"><title>Node3</title>
<polygon fill="none" stroke="#bfbfbf" points="72.5,-0.5 72.5,-19.5 101.5,-19.5 101.5,-0.5 72.5,-0.5"/>
<text text-anchor="middle" x="87" y="-7.5" font-family="Helvetica,sans-Serif" font-size="10.00">list</text>
</g>
<!-- Node1&#45;&gt;Node3 -->
<g id="edge3" class="edge"><title>Node1&#45;&gt;Node3</title>
<path fill="none" stroke="midnightblue" d="M268.998,-59.3565C233.669,-52.2018 172.065,-38.8266 111.667,-20.236"/>
<polygon fill="midnightblue" stroke="midnightblue" points="112.577,-16.8534 101.988,-17.2077 110.486,-23.5341 112.577,-16.8534"/>
</g>
<!-- Node4 -->
<g id="node5" class="node"><title>Node4</title>
<polygon fill="none" stroke="#bfbfbf" points="119.5,-0.5 119.5,-19.5 202.5,-19.5 202.5,-0.5 119.5,-0.5"/>
<text text-anchor="middle" x="161" y="-7.5" font-family="Helvetica,sans-Serif" font-size="10.00">unordered_map</text>
</g>
<!-- Node1&#45;&gt;Node4 -->
<g id="edge4" class="edge"><title>Node1&#45;&gt;Node4</title>
<path fill="none" stroke="midnightblue" d="M276.292,-56.4435C253.645,-47.5171 217.928,-33.4387 192.248,-23.3168"/>
<polygon fill="midnightblue" stroke="midnightblue" points="193.193,-19.9273 182.606,-19.5164 190.626,-26.4397 193.193,-19.9273"/>
</g>
<!-- Node5 -->
<g id="node6" class="node"><title>Node5</title>
<polygon fill="none" stroke="#bfbfbf" points="221,-0.5 221,-19.5 295,-19.5 295,-0.5 221,-0.5"/>
<text text-anchor="middle" x="258" y="-7.5" font-family="Helvetica,sans-Serif" font-size="10.00">bits/stdc++.h</text>
</g>
<!-- Node1&#45;&gt;Node5 -->
<g id="edge5" class="edge"><title>Node1&#45;&gt;Node5</title>
<path fill="none" stroke="midnightblue" d="M291.395,-56.083C285.745,-48.4554 277.455,-37.2645 270.549,-27.9408"/>
<polygon fill="midnightblue" stroke="midnightblue" points="273.247,-25.7034 264.482,-19.7511 267.622,-29.87 273.247,-25.7034"/>
</g>
<!-- Node6 -->
<g id="node7" class="node"><title>Node6</title>
<polygon fill="none" stroke="#bfbfbf" points="313,-0.5 313,-19.5 363,-19.5 363,-0.5 313,-0.5"/>
<text text-anchor="middle" x="338" y="-7.5" font-family="Helvetica,sans-Serif" font-size="10.00">fstream</text>
</g>
<!-- Node1&#45;&gt;Node6 -->
<g id="edge6" class="edge"><title>Node1&#45;&gt;Node6</title>
<path fill="none" stroke="midnightblue" d="M304.605,-56.083C310.255,-48.4554 318.545,-37.2645 325.451,-27.9408"/>
<polygon fill="midnightblue" stroke="midnightblue" points="328.378,-29.87 331.518,-19.7511 322.753,-25.7034 328.378,-29.87"/>
</g>
<!-- Node7 -->
<g id="node8" class="node"><title>Node7</title>
<polygon fill="none" stroke="#bfbfbf" points="381,-0.5 381,-19.5 433,-19.5 433,-0.5 381,-0.5"/>
<text text-anchor="middle" x="407" y="-7.5" font-family="Helvetica,sans-Serif" font-size="10.00">sstream</text>
</g>
<!-- Node1&#45;&gt;Node7 -->
<g id="edge7" class="edge"><title>Node1&#45;&gt;Node7</title>
<path fill="none" stroke="midnightblue" d="M315.513,-56.324C333.072,-47.6247 360.331,-34.1202 380.531,-24.113"/>
<polygon fill="midnightblue" stroke="midnightblue" points="382.124,-27.23 389.531,-19.6545 379.016,-20.9575 382.124,-27.23"/>
</g>
<!-- Node8 -->
<g id="node9" class="node"><title>Node8</title>
<polygon fill="none" stroke="#bfbfbf" points="451.5,-0.5 451.5,-19.5 492.5,-19.5 492.5,-0.5 451.5,-0.5"/>
<text text-anchor="middle" x="472" y="-7.5" font-family="Helvetica,sans-Serif" font-size="10.00">regex</text>
</g>
<!-- Node1&#45;&gt;Node8 -->
<g id="edge8" class="edge"><title>Node1&#45;&gt;Node8</title>
<path fill="none" stroke="midnightblue" d="M325.571,-56.4435C357.132,-46.6487 408.681,-30.6509 441.442,-20.4836"/>
<polygon fill="midnightblue" stroke="midnightblue" points="442.856,-23.7094 451.369,-17.4026 440.781,-17.0239 442.856,-23.7094"/>
</g>
<!-- Node9 -->
<g id="node10" class="node"><title>Node9</title>
<polygon fill="none" stroke="#bfbfbf" points="510.5,-0.5 510.5,-19.5 551.5,-19.5 551.5,-0.5 510.5,-0.5"/>
<text text-anchor="middle" x="531" y="-7.5" font-family="Helvetica,sans-Serif" font-size="10.00">string</text>
</g>
<!-- Node1&#45;&gt;Node9 -->
<g id="edge9" class="edge"><title>Node1&#45;&gt;Node9</title>
<path fill="none" stroke="midnightblue" d="M327.238,-59.3528C365.149,-51.8565 433.501,-37.7525 500.582,-20.2174"/>
<polygon fill="midnightblue" stroke="midnightblue" points="501.692,-23.5442 510.466,-17.6057 499.904,-16.7765 501.692,-23.5442"/>
</g>
</g>
</svg>
