<?xml version="1.0" encoding="UTF-8" standalone="no"?>
<!DOCTYPE svg PUBLIC "-//W3C//DTD SVG 1.1//EN"
 "http://www.w3.org/Graphics/SVG/1.1/DTD/svg11.dtd">
<!-- Generated by graphviz version 2.38.0 (20140413.2041)
 -->
<!-- Title: C&#45;Syncker/include/GerenciadorDeMemorias.h Pages: 1 -->
<svg width="290pt" height="95pt"
 viewBox="0.00 0.00 290.00 95.00" xmlns="http://www.w3.org/2000/svg" xmlns:xlink="http://www.w3.org/1999/xlink">
<g id="graph0" class="graph" transform="scale(1 1) rotate(0) translate(4 91)">
<title>C&#45;Syncker/include/GerenciadorDeMemorias.h</title>
<!-- Node0 -->
<g id="node1" class="node"><title>Node0</title>
<polygon fill="#bfbfbf" stroke="black" points="51.5,-56.5 51.5,-86.5 203.5,-86.5 203.5,-56.5 51.5,-56.5"/>
<text text-anchor="start" x="59.5" y="-74.5" font-family="Helvetica,sans-Serif" font-size="10.00">C&#45;Syncker/include/Gerenciador</text>
<text text-anchor="middle" x="127.5" y="-63.5" font-family="Helvetica,sans-Serif" font-size="10.00">DeMemorias.h</text>
</g>
<!-- Node1 -->
<g id="node2" class="node"><title>Node1</title>
<polygon fill="none" stroke="#bfbfbf" points="0,-0.5 0,-19.5 35,-19.5 35,-0.5 0,-0.5"/>
<text text-anchor="middle" x="17.5" y="-7.5" font-family="Helvetica,sans-Serif" font-size="10.00">map</text>
</g>
<!-- Node0&#45;&gt;Node1 -->
<g id="edge1" class="edge"><title>Node0&#45;&gt;Node1</title>
<path fill="none" stroke="midnightblue" d="M101.432,-56.3993C83.6346,-46.7728 60.1877,-34.0902 42.6006,-24.5772"/>
<polygon fill="midnightblue" stroke="midnightblue" points="43.9669,-21.337 33.506,-19.6578 40.6365,-27.494 43.9669,-21.337"/>
</g>
<!-- Node2 -->
<g id="node3" class="node"><title>Node2</title>
<polygon fill="none" stroke="#bfbfbf" points="53,-0.5 53,-19.5 82,-19.5 82,-0.5 53,-0.5"/>
<text text-anchor="middle" x="67.5" y="-7.5" font-family="Helvetica,sans-Serif" font-size="10.00">list</text>
</g>
<!-- Node0&#45;&gt;Node2 -->
<g id="edge2" class="edge"><title>Node0&#45;&gt;Node2</title>
<path fill="none" stroke="midnightblue" d="M113.281,-56.3993C104.292,-47.4859 92.662,-35.9523 83.3731,-26.7408"/>
<polygon fill="midnightblue" stroke="midnightblue" points="85.7957,-24.214 76.2305,-19.6578 80.8666,-29.1844 85.7957,-24.214"/>
</g>
<!-- Node3 -->
<g id="node4" class="node"><title>Node3</title>
<polygon fill="none" stroke="#bfbfbf" points="100.5,-0.5 100.5,-19.5 154.5,-19.5 154.5,-0.5 100.5,-0.5"/>
<text text-anchor="middle" x="127.5" y="-7.5" font-family="Helvetica,sans-Serif" font-size="10.00">iostream</text>
</g>
<!-- Node0&#45;&gt;Node3 -->
<g id="edge3" class="edge"><title>Node0&#45;&gt;Node3</title>
<path fill="none" stroke="midnightblue" d="M127.5,-56.3993C127.5,-48.4664 127.5,-38.458 127.5,-29.8583"/>
<polygon fill="midnightblue" stroke="midnightblue" points="131,-29.6577 127.5,-19.6578 124,-29.6578 131,-29.6577"/>
</g>
<!-- Node4 -->
<g id="node5" class="node"><title>Node4</title>
<polygon fill="none" stroke="#bfbfbf" points="172.5,-0.5 172.5,-19.5 222.5,-19.5 222.5,-0.5 172.5,-0.5"/>
<text text-anchor="middle" x="197.5" y="-7.5" font-family="Helvetica,sans-Serif" font-size="10.00">fstream</text>
</g>
<!-- Node0&#45;&gt;Node4 -->
<g id="edge4" class="edge"><title>Node0&#45;&gt;Node4</title>
<path fill="none" stroke="midnightblue" d="M144.089,-56.3993C154.785,-47.3076 168.688,-35.4899 179.628,-26.1909"/>
<polygon fill="midnightblue" stroke="midnightblue" points="181.962,-28.8011 187.314,-19.6578 177.428,-23.4675 181.962,-28.8011"/>
</g>
<!-- Node5 -->
<g id="node6" class="node"><title>Node5</title>
<polygon fill="none" stroke="#bfbfbf" points="241,-0.5 241,-19.5 282,-19.5 282,-0.5 241,-0.5"/>
<text text-anchor="middle" x="261.5" y="-7.5" font-family="Helvetica,sans-Serif" font-size="10.00">stack</text>
</g>
<!-- Node0&#45;&gt;Node5 -->
<g id="edge5" class="edge"><title>Node0&#45;&gt;Node5</title>
<path fill="none" stroke="midnightblue" d="M159.256,-56.3993C181.538,-46.5054 211.091,-33.3832 232.691,-23.7919"/>
<polygon fill="midnightblue" stroke="midnightblue" points="234.283,-26.9149 242.002,-19.6578 231.442,-20.5172 234.283,-26.9149"/>
</g>
</g>
</svg>
