<?xml version="1.0" encoding="UTF-8" standalone="no"?>
<!DOCTYPE svg PUBLIC "-//W3C//DTD SVG 1.1//EN"
 "http://www.w3.org/Graphics/SVG/1.1/DTD/svg11.dtd">
<!-- Generated by graphviz version 2.38.0 (20140413.2041)
 -->
<!-- Title: C&#45;Syncker/include/GerenciadorDeMemorias.h Pages: 1 -->
<svg width="284pt" height="106pt"
 viewBox="0.00 0.00 283.50 106.00" xmlns="http://www.w3.org/2000/svg" xmlns:xlink="http://www.w3.org/1999/xlink">
<g id="graph0" class="graph" transform="scale(1 1) rotate(0) translate(4 102)">
<title>C&#45;Syncker/include/GerenciadorDeMemorias.h</title>
<!-- Node6 -->
<g id="node1" class="node"><title>Node6</title>
<polygon fill="#bfbfbf" stroke="black" points="64.5,-67.5 64.5,-97.5 216.5,-97.5 216.5,-67.5 64.5,-67.5"/>
<text text-anchor="start" x="72.5" y="-85.5" font-family="Helvetica,sans-Serif" font-size="10.00">C&#45;Syncker/include/Gerenciador</text>
<text text-anchor="middle" x="140.5" y="-74.5" font-family="Helvetica,sans-Serif" font-size="10.00">DeMemorias.h</text>
</g>
<!-- Node7 -->
<g id="node2" class="node"><title>Node7</title>
<g id="a_node2"><a xlink:href="_gerenciador_de_memorias_8cpp.html" target="_top" xlink:title="C&#45;Syncker/src/Gerenciador\lDeMemorias.cpp">
<polygon fill="none" stroke="black" points="0,-0.5 0,-30.5 135,-30.5 135,-0.5 0,-0.5"/>
<text text-anchor="start" x="8" y="-18.5" font-family="Helvetica,sans-Serif" font-size="10.00">C&#45;Syncker/src/Gerenciador</text>
<text text-anchor="middle" x="67.5" y="-7.5" font-family="Helvetica,sans-Serif" font-size="10.00">DeMemorias.cpp</text>
</a>
</g>
</g>
<!-- Node6&#45;&gt;Node7 -->
<g id="edge1" class="edge"><title>Node6&#45;&gt;Node7</title>
<path fill="none" stroke="midnightblue" d="M117.025,-60.5978C106.003,-50.7831 93.1558,-39.3442 83.309,-30.5765"/>
<polygon fill="midnightblue" stroke="midnightblue" points="114.864,-63.3599 124.66,-67.396 119.519,-58.132 114.864,-63.3599"/>
</g>
<!-- Node8 -->
<g id="node3" class="node"><title>Node8</title>
<g id="a_node3"><a xlink:href="main_8cpp.html" target="_top" xlink:title="C&#45;Syncker/src/main.cpp">
<polygon fill="none" stroke="black" points="153.5,-6 153.5,-25 275.5,-25 275.5,-6 153.5,-6"/>
<text text-anchor="middle" x="214.5" y="-13" font-family="Helvetica,sans-Serif" font-size="10.00">C&#45;Syncker/src/main.cpp</text>
</a>
</g>
</g>
<!-- Node6&#45;&gt;Node8 -->
<g id="edge2" class="edge"><title>Node6&#45;&gt;Node8</title>
<path fill="none" stroke="midnightblue" d="M164.212,-60.6722C177.875,-48.6707 194.326,-34.2203 204.602,-25.1945"/>
<polygon fill="midnightblue" stroke="midnightblue" points="161.76,-58.1669 156.557,-67.396 166.38,-63.4261 161.76,-58.1669"/>
</g>
</g>
</svg>
