<?xml version="1.0" encoding="UTF-8" standalone="no"?>
<!DOCTYPE svg PUBLIC "-//W3C//DTD SVG 1.1//EN"
 "http://www.w3.org/Graphics/SVG/1.1/DTD/svg11.dtd">
<!-- Generated by graphviz version 2.38.0 (20140413.2041)
 -->
<!-- Title: C&#45;Syncker/src/GerenciadorDeMemorias.cpp Pages: 1 -->
<svg width="290pt" height="151pt"
 viewBox="0.00 0.00 290.00 151.00" xmlns="http://www.w3.org/2000/svg" xmlns:xlink="http://www.w3.org/1999/xlink">
<g id="graph0" class="graph" transform="scale(1 1) rotate(0) translate(4 147)">
<title>C&#45;Syncker/src/GerenciadorDeMemorias.cpp</title>
<!-- Node0 -->
<g id="node1" class="node"><title>Node0</title>
<polygon fill="#bfbfbf" stroke="black" points="60,-112.5 60,-142.5 195,-142.5 195,-112.5 60,-112.5"/>
<text text-anchor="start" x="68" y="-130.5" font-family="Helvetica,sans-Serif" font-size="10.00">C&#45;Syncker/src/Gerenciador</text>
<text text-anchor="middle" x="127.5" y="-119.5" font-family="Helvetica,sans-Serif" font-size="10.00">DeMemorias.cpp</text>
</g>
<!-- Node1 -->
<g id="node2" class="node"><title>Node1</title>
<g id="a_node2"><a xlink:href="_gerenciador_de_memorias_8h.html" target="_top" xlink:title="GerenciadorDeMemorias.h">
<polygon fill="none" stroke="black" points="61,-56.5 61,-75.5 194,-75.5 194,-56.5 61,-56.5"/>
<text text-anchor="middle" x="127.5" y="-63.5" font-family="Helvetica,sans-Serif" font-size="10.00">GerenciadorDeMemorias.h</text>
</a>
</g>
</g>
<!-- Node0&#45;&gt;Node1 -->
<g id="edge1" class="edge"><title>Node0&#45;&gt;Node1</title>
<path fill="none" stroke="midnightblue" d="M127.5,-112.399C127.5,-104.466 127.5,-94.458 127.5,-85.8583"/>
<polygon fill="midnightblue" stroke="midnightblue" points="131,-85.6577 127.5,-75.6578 124,-85.6578 131,-85.6577"/>
</g>
<!-- Node2 -->
<g id="node3" class="node"><title>Node2</title>
<polygon fill="none" stroke="#bfbfbf" points="0,-0.5 0,-19.5 35,-19.5 35,-0.5 0,-0.5"/>
<text text-anchor="middle" x="17.5" y="-7.5" font-family="Helvetica,sans-Serif" font-size="10.00">map</text>
</g>
<!-- Node1&#45;&gt;Node2 -->
<g id="edge2" class="edge"><title>Node1&#45;&gt;Node2</title>
<path fill="none" stroke="midnightblue" d="M109.827,-56.324C92.1059,-47.6247 64.5968,-34.1202 44.2116,-24.113"/>
<polygon fill="midnightblue" stroke="midnightblue" points="45.6486,-20.9195 35.1295,-19.6545 42.5639,-27.2031 45.6486,-20.9195"/>
</g>
<!-- Node3 -->
<g id="node4" class="node"><title>Node3</title>
<polygon fill="none" stroke="#bfbfbf" points="53,-0.5 53,-19.5 82,-19.5 82,-0.5 53,-0.5"/>
<text text-anchor="middle" x="67.5" y="-7.5" font-family="Helvetica,sans-Serif" font-size="10.00">list</text>
</g>
<!-- Node1&#45;&gt;Node3 -->
<g id="edge3" class="edge"><title>Node1&#45;&gt;Node3</title>
<path fill="none" stroke="midnightblue" d="M117.86,-56.324C108.99,-48.3414 95.6253,-36.3128 84.8921,-26.6529"/>
<polygon fill="midnightblue" stroke="midnightblue" points="87.0898,-23.922 77.3154,-19.8339 82.407,-29.1251 87.0898,-23.922"/>
</g>
<!-- Node4 -->
<g id="node5" class="node"><title>Node4</title>
<polygon fill="none" stroke="#bfbfbf" points="100.5,-0.5 100.5,-19.5 154.5,-19.5 154.5,-0.5 100.5,-0.5"/>
<text text-anchor="middle" x="127.5" y="-7.5" font-family="Helvetica,sans-Serif" font-size="10.00">iostream</text>
</g>
<!-- Node1&#45;&gt;Node4 -->
<g id="edge4" class="edge"><title>Node1&#45;&gt;Node4</title>
<path fill="none" stroke="midnightblue" d="M127.5,-56.083C127.5,-49.0059 127.5,-38.8611 127.5,-29.9865"/>
<polygon fill="midnightblue" stroke="midnightblue" points="131,-29.751 127.5,-19.7511 124,-29.7511 131,-29.751"/>
</g>
<!-- Node5 -->
<g id="node6" class="node"><title>Node5</title>
<polygon fill="none" stroke="#bfbfbf" points="172.5,-0.5 172.5,-19.5 222.5,-19.5 222.5,-0.5 172.5,-0.5"/>
<text text-anchor="middle" x="197.5" y="-7.5" font-family="Helvetica,sans-Serif" font-size="10.00">fstream</text>
</g>
<!-- Node1&#45;&gt;Node5 -->
<g id="edge5" class="edge"><title>Node1&#45;&gt;Node5</title>
<path fill="none" stroke="midnightblue" d="M138.747,-56.324C149.297,-48.1849 165.301,-35.8395 177.942,-26.0874"/>
<polygon fill="midnightblue" stroke="midnightblue" points="180.269,-28.7132 186.049,-19.8339 175.993,-23.1707 180.269,-28.7132"/>
</g>
<!-- Node6 -->
<g id="node7" class="node"><title>Node6</title>
<polygon fill="none" stroke="#bfbfbf" points="241,-0.5 241,-19.5 282,-19.5 282,-0.5 241,-0.5"/>
<text text-anchor="middle" x="261.5" y="-7.5" font-family="Helvetica,sans-Serif" font-size="10.00">stack</text>
</g>
<!-- Node1&#45;&gt;Node6 -->
<g id="edge6" class="edge"><title>Node1&#45;&gt;Node6</title>
<path fill="none" stroke="midnightblue" d="M148.733,-56.4435C171.014,-47.4646 206.23,-33.2729 231.378,-23.1386"/>
<polygon fill="midnightblue" stroke="midnightblue" points="232.84,-26.3231 240.807,-19.339 230.224,-19.8305 232.84,-26.3231"/>
</g>
</g>
</svg>
