<?xml version="1.0" encoding="UTF-8" standalone="no"?>
<!DOCTYPE svg PUBLIC "-//W3C//DTD SVG 1.1//EN"
 "http://www.w3.org/Graphics/SVG/1.1/DTD/svg11.dtd">
<!-- Generated by graphviz version 2.38.0 (20140413.2041)
 -->
<!-- Title: C&#45;Syncker/include/ProcessadorDeListas.h Pages: 1 -->
<svg width="602pt" height="95pt"
 viewBox="0.00 0.00 602.00 95.00" xmlns="http://www.w3.org/2000/svg" xmlns:xlink="http://www.w3.org/1999/xlink">
<g id="graph0" class="graph" transform="scale(1 1) rotate(0) translate(4 91)">
<title>C&#45;Syncker/include/ProcessadorDeListas.h</title>
<!-- Node0 -->
<g id="node1" class="node"><title>Node0</title>
<polygon fill="#bfbfbf" stroke="black" points="178.5,-56.5 178.5,-86.5 333.5,-86.5 333.5,-56.5 178.5,-56.5"/>
<text text-anchor="start" x="186.5" y="-74.5" font-family="Helvetica,sans-Serif" font-size="10.00">C&#45;Syncker/include/Processador</text>
<text text-anchor="middle" x="256" y="-63.5" font-family="Helvetica,sans-Serif" font-size="10.00">DeListas.h</text>
</g>
<!-- Node1 -->
<g id="node2" class="node"><title>Node1</title>
<polygon fill="none" stroke="#bfbfbf" points="0,-0.5 0,-19.5 54,-19.5 54,-0.5 0,-0.5"/>
<text text-anchor="middle" x="27" y="-7.5" font-family="Helvetica,sans-Serif" font-size="10.00">iostream</text>
</g>
<!-- Node0&#45;&gt;Node1 -->
<g id="edge1" class="edge"><title>Node0&#45;&gt;Node1</title>
<path fill="none" stroke="midnightblue" d="M202.02,-56.4747C159.596,-45.4517 101.615,-30.387 64.2336,-20.6742"/>
<polygon fill="midnightblue" stroke="midnightblue" points="64.8252,-17.2118 54.2663,-18.0845 63.0648,-23.9868 64.8252,-17.2118"/>
</g>
<!-- Node2 -->
<g id="node3" class="node"><title>Node2</title>
<polygon fill="none" stroke="#bfbfbf" points="72.5,-0.5 72.5,-19.5 107.5,-19.5 107.5,-0.5 72.5,-0.5"/>
<text text-anchor="middle" x="90" y="-7.5" font-family="Helvetica,sans-Serif" font-size="10.00">map</text>
</g>
<!-- Node0&#45;&gt;Node2 -->
<g id="edge2" class="edge"><title>Node0&#45;&gt;Node2</title>
<path fill="none" stroke="midnightblue" d="M216.66,-56.3993C186.055,-45.4293 144.377,-30.4907 117.331,-20.7964"/>
<polygon fill="midnightblue" stroke="midnightblue" points="118.33,-17.4364 107.735,-17.357 115.968,-24.0259 118.33,-17.4364"/>
</g>
<!-- Node3 -->
<g id="node4" class="node"><title>Node3</title>
<polygon fill="none" stroke="#bfbfbf" points="125.5,-0.5 125.5,-19.5 154.5,-19.5 154.5,-0.5 125.5,-0.5"/>
<text text-anchor="middle" x="140" y="-7.5" font-family="Helvetica,sans-Serif" font-size="10.00">list</text>
</g>
<!-- Node0&#45;&gt;Node3 -->
<g id="edge3" class="edge"><title>Node0&#45;&gt;Node3</title>
<path fill="none" stroke="midnightblue" d="M228.51,-56.3993C208.769,-46.274 182.438,-32.7676 163.638,-23.1247"/>
<polygon fill="midnightblue" stroke="midnightblue" points="165.064,-19.9224 154.569,-18.4726 161.869,-26.1509 165.064,-19.9224"/>
</g>
<!-- Node4 -->
<g id="node5" class="node"><title>Node4</title>
<polygon fill="none" stroke="#bfbfbf" points="173,-0.5 173,-19.5 217,-19.5 217,-0.5 173,-0.5"/>
<text text-anchor="middle" x="195" y="-7.5" font-family="Helvetica,sans-Serif" font-size="10.00">vector</text>
</g>
<!-- Node0&#45;&gt;Node4 -->
<g id="edge4" class="edge"><title>Node0&#45;&gt;Node4</title>
<path fill="none" stroke="midnightblue" d="M241.544,-56.3993C232.406,-47.4859 220.581,-35.9523 211.138,-26.7408"/>
<polygon fill="midnightblue" stroke="midnightblue" points="213.478,-24.1348 203.876,-19.6578 208.591,-29.1458 213.478,-24.1348"/>
</g>
<!-- Node5 -->
<g id="node6" class="node"><title>Node5</title>
<polygon fill="none" stroke="#bfbfbf" points="235.5,-0.5 235.5,-19.5 276.5,-19.5 276.5,-0.5 235.5,-0.5"/>
<text text-anchor="middle" x="256" y="-7.5" font-family="Helvetica,sans-Serif" font-size="10.00">string</text>
</g>
<!-- Node0&#45;&gt;Node5 -->
<g id="edge5" class="edge"><title>Node0&#45;&gt;Node5</title>
<path fill="none" stroke="midnightblue" d="M256,-56.3993C256,-48.4664 256,-38.458 256,-29.8583"/>
<polygon fill="midnightblue" stroke="midnightblue" points="259.5,-29.6577 256,-19.6578 252.5,-29.6578 259.5,-29.6577"/>
</g>
<!-- Node6 -->
<g id="node7" class="node"><title>Node6</title>
<polygon fill="none" stroke="#bfbfbf" points="294.5,-0.5 294.5,-19.5 345.5,-19.5 345.5,-0.5 294.5,-0.5"/>
<text text-anchor="middle" x="320" y="-7.5" font-family="Helvetica,sans-Serif" font-size="10.00">numeric</text>
</g>
<!-- Node0&#45;&gt;Node6 -->
<g id="edge6" class="edge"><title>Node0&#45;&gt;Node6</title>
<path fill="none" stroke="midnightblue" d="M271.167,-56.3993C280.755,-47.4859 293.161,-35.9523 303.069,-26.7408"/>
<polygon fill="midnightblue" stroke="midnightblue" points="305.747,-29.0301 310.687,-19.6578 300.98,-23.9033 305.747,-29.0301"/>
</g>
<!-- Node7 -->
<g id="node8" class="node"><title>Node7</title>
<polygon fill="none" stroke="#bfbfbf" points="364,-0.5 364,-19.5 420,-19.5 420,-0.5 364,-0.5"/>
<text text-anchor="middle" x="392" y="-7.5" font-family="Helvetica,sans-Serif" font-size="10.00">algorithm</text>
</g>
<!-- Node0&#45;&gt;Node7 -->
<g id="edge7" class="edge"><title>Node0&#45;&gt;Node7</title>
<path fill="none" stroke="midnightblue" d="M288.23,-56.3993C310.845,-46.5054 340.838,-33.3832 362.761,-23.7919"/>
<polygon fill="midnightblue" stroke="midnightblue" points="364.452,-26.8726 372.211,-19.6578 361.646,-20.4595 364.452,-26.8726"/>
</g>
<!-- Node8 -->
<g id="node9" class="node"><title>Node8</title>
<polygon fill="none" stroke="#bfbfbf" points="438.5,-0.5 438.5,-19.5 497.5,-19.5 497.5,-0.5 438.5,-0.5"/>
<text text-anchor="middle" x="468" y="-7.5" font-family="Helvetica,sans-Serif" font-size="10.00">functional</text>
</g>
<!-- Node0&#45;&gt;Node8 -->
<g id="edge8" class="edge"><title>Node0&#45;&gt;Node8</title>
<path fill="none" stroke="midnightblue" d="M305.973,-56.4747C343.409,-45.9679 393.928,-31.7889 428.547,-22.0729"/>
<polygon fill="midnightblue" stroke="midnightblue" points="429.624,-25.406 438.306,-19.3339 427.732,-18.6664 429.624,-25.406"/>
</g>
<!-- Node9 -->
<g id="node10" class="node"><title>Node9</title>
<polygon fill="none" stroke="#bfbfbf" points="516,-0.5 516,-19.5 594,-19.5 594,-0.5 516,-0.5"/>
<text text-anchor="middle" x="555" y="-7.5" font-family="Helvetica,sans-Serif" font-size="10.00">unordered_set</text>
</g>
<!-- Node0&#45;&gt;Node9 -->
<g id="edge9" class="edge"><title>Node0&#45;&gt;Node9</title>
<path fill="none" stroke="midnightblue" d="M326.48,-56.4747C381.606,-45.5048 456.847,-30.5321 505.677,-20.8151"/>
<polygon fill="midnightblue" stroke="midnightblue" points="506.555,-24.2092 515.679,-18.8247 505.188,-17.3438 506.555,-24.2092"/>
</g>
</g>
</svg>
