<?xml version="1.0" encoding="UTF-8" standalone="no"?>
<!DOCTYPE svg PUBLIC "-//W3C//DTD SVG 1.1//EN"
 "http://www.w3.org/Graphics/SVG/1.1/DTD/svg11.dtd">
<!-- Generated by graphviz version 2.38.0 (20140413.2041)
 -->
<!-- Title: C&#45;Syncker/src/ProcessadorDeListas.cpp Pages: 1 -->
<svg width="602pt" height="151pt"
 viewBox="0.00 0.00 602.00 151.00" xmlns="http://www.w3.org/2000/svg" xmlns:xlink="http://www.w3.org/1999/xlink">
<g id="graph0" class="graph" transform="scale(1 1) rotate(0) translate(4 147)">
<title>C&#45;Syncker/src/ProcessadorDeListas.cpp</title>
<!-- Node0 -->
<g id="node1" class="node"><title>Node0</title>
<polygon fill="#bfbfbf" stroke="black" points="187.5,-112.5 187.5,-142.5 324.5,-142.5 324.5,-112.5 187.5,-112.5"/>
<text text-anchor="start" x="195.5" y="-130.5" font-family="Helvetica,sans-Serif" font-size="10.00">C&#45;Syncker/src/Processador</text>
<text text-anchor="middle" x="256" y="-119.5" font-family="Helvetica,sans-Serif" font-size="10.00">DeListas.cpp</text>
</g>
<!-- Node1 -->
<g id="node2" class="node"><title>Node1</title>
<g id="a_node2"><a xlink:href="_processador_de_listas_8h.html" target="_top" xlink:title="ProcessadorDeListas.h">
<polygon fill="none" stroke="black" points="196.5,-56.5 196.5,-75.5 315.5,-75.5 315.5,-56.5 196.5,-56.5"/>
<text text-anchor="middle" x="256" y="-63.5" font-family="Helvetica,sans-Serif" font-size="10.00">ProcessadorDeListas.h</text>
</a>
</g>
</g>
<!-- Node0&#45;&gt;Node1 -->
<g id="edge1" class="edge"><title>Node0&#45;&gt;Node1</title>
<path fill="none" stroke="midnightblue" d="M256,-112.399C256,-104.466 256,-94.458 256,-85.8583"/>
<polygon fill="midnightblue" stroke="midnightblue" points="259.5,-85.6577 256,-75.6578 252.5,-85.6578 259.5,-85.6577"/>
</g>
<!-- Node2 -->
<g id="node3" class="node"><title>Node2</title>
<polygon fill="none" stroke="#bfbfbf" points="0,-0.5 0,-19.5 54,-19.5 54,-0.5 0,-0.5"/>
<text text-anchor="middle" x="27" y="-7.5" font-family="Helvetica,sans-Serif" font-size="10.00">iostream</text>
</g>
<!-- Node1&#45;&gt;Node2 -->
<g id="edge2" class="edge"><title>Node1&#45;&gt;Node2</title>
<path fill="none" stroke="midnightblue" d="M218.598,-56.465C181.739,-48.0124 123.556,-34.5605 64.0605,-20.2289"/>
<polygon fill="midnightblue" stroke="midnightblue" points="64.6576,-16.7726 54.1154,-17.8279 63.0147,-23.5771 64.6576,-16.7726"/>
</g>
<!-- Node3 -->
<g id="node4" class="node"><title>Node3</title>
<polygon fill="none" stroke="#bfbfbf" points="72.5,-0.5 72.5,-19.5 107.5,-19.5 107.5,-0.5 72.5,-0.5"/>
<text text-anchor="middle" x="90" y="-7.5" font-family="Helvetica,sans-Serif" font-size="10.00">map</text>
</g>
<!-- Node1&#45;&gt;Node3 -->
<g id="edge3" class="edge"><title>Node1&#45;&gt;Node3</title>
<path fill="none" stroke="midnightblue" d="M228.841,-56.4673C202.523,-48.1559 161.248,-35.0084 117.313,-20.3927"/>
<polygon fill="midnightblue" stroke="midnightblue" points="118.198,-16.9982 107.604,-17.153 115.982,-23.6383 118.198,-16.9982"/>
</g>
<!-- Node4 -->
<g id="node5" class="node"><title>Node4</title>
<polygon fill="none" stroke="#bfbfbf" points="125.5,-0.5 125.5,-19.5 154.5,-19.5 154.5,-0.5 125.5,-0.5"/>
<text text-anchor="middle" x="140" y="-7.5" font-family="Helvetica,sans-Serif" font-size="10.00">list</text>
</g>
<!-- Node1&#45;&gt;Node4 -->
<g id="edge4" class="edge"><title>Node1&#45;&gt;Node4</title>
<path fill="none" stroke="midnightblue" d="M237.619,-56.4435C217.676,-47.1593 185.759,-32.3018 163.886,-22.1193"/>
<polygon fill="midnightblue" stroke="midnightblue" points="165.165,-18.854 154.622,-17.8067 162.21,-25.2 165.165,-18.854"/>
</g>
<!-- Node5 -->
<g id="node6" class="node"><title>Node5</title>
<polygon fill="none" stroke="#bfbfbf" points="173,-0.5 173,-19.5 217,-19.5 217,-0.5 173,-0.5"/>
<text text-anchor="middle" x="195" y="-7.5" font-family="Helvetica,sans-Serif" font-size="10.00">vector</text>
</g>
<!-- Node1&#45;&gt;Node5 -->
<g id="edge5" class="edge"><title>Node1&#45;&gt;Node5</title>
<path fill="none" stroke="midnightblue" d="M246.199,-56.324C237.182,-48.3414 223.594,-36.3128 212.682,-26.6529"/>
<polygon fill="midnightblue" stroke="midnightblue" points="214.787,-23.8416 204.979,-19.8339 210.147,-29.083 214.787,-23.8416"/>
</g>
<!-- Node6 -->
<g id="node7" class="node"><title>Node6</title>
<polygon fill="none" stroke="#bfbfbf" points="235.5,-0.5 235.5,-19.5 276.5,-19.5 276.5,-0.5 235.5,-0.5"/>
<text text-anchor="middle" x="256" y="-7.5" font-family="Helvetica,sans-Serif" font-size="10.00">string</text>
</g>
<!-- Node1&#45;&gt;Node6 -->
<g id="edge6" class="edge"><title>Node1&#45;&gt;Node6</title>
<path fill="none" stroke="midnightblue" d="M256,-56.083C256,-49.0059 256,-38.8611 256,-29.9865"/>
<polygon fill="midnightblue" stroke="midnightblue" points="259.5,-29.751 256,-19.7511 252.5,-29.7511 259.5,-29.751"/>
</g>
<!-- Node7 -->
<g id="node8" class="node"><title>Node7</title>
<polygon fill="none" stroke="#bfbfbf" points="294.5,-0.5 294.5,-19.5 345.5,-19.5 345.5,-0.5 294.5,-0.5"/>
<text text-anchor="middle" x="320" y="-7.5" font-family="Helvetica,sans-Serif" font-size="10.00">numeric</text>
</g>
<!-- Node1&#45;&gt;Node7 -->
<g id="edge7" class="edge"><title>Node1&#45;&gt;Node7</title>
<path fill="none" stroke="midnightblue" d="M266.283,-56.324C275.836,-48.2631 290.28,-36.0765 301.784,-26.3695"/>
<polygon fill="midnightblue" stroke="midnightblue" points="304.144,-28.9577 309.53,-19.8339 299.63,-23.6076 304.144,-28.9577"/>
</g>
<!-- Node8 -->
<g id="node9" class="node"><title>Node8</title>
<polygon fill="none" stroke="#bfbfbf" points="364,-0.5 364,-19.5 420,-19.5 420,-0.5 364,-0.5"/>
<text text-anchor="middle" x="392" y="-7.5" font-family="Helvetica,sans-Serif" font-size="10.00">algorithm</text>
</g>
<!-- Node1&#45;&gt;Node8 -->
<g id="edge8" class="edge"><title>Node1&#45;&gt;Node8</title>
<path fill="none" stroke="midnightblue" d="M277.55,-56.4435C300.031,-47.5171 335.488,-33.4387 360.98,-23.3168"/>
<polygon fill="midnightblue" stroke="midnightblue" points="362.549,-26.4598 370.551,-19.5164 359.965,-19.9539 362.549,-26.4598"/>
</g>
<!-- Node9 -->
<g id="node10" class="node"><title>Node9</title>
<polygon fill="none" stroke="#bfbfbf" points="438.5,-0.5 438.5,-19.5 497.5,-19.5 497.5,-0.5 438.5,-0.5"/>
<text text-anchor="middle" x="468" y="-7.5" font-family="Helvetica,sans-Serif" font-size="10.00">functional</text>
</g>
<!-- Node1&#45;&gt;Node9 -->
<g id="edge9" class="edge"><title>Node1&#45;&gt;Node9</title>
<path fill="none" stroke="midnightblue" d="M289.592,-56.4435C327.291,-46.8409 388.397,-31.2763 428.392,-21.0887"/>
<polygon fill="midnightblue" stroke="midnightblue" points="429.501,-24.4181 438.328,-18.558 427.773,-17.6347 429.501,-24.4181"/>
</g>
<!-- Node10 -->
<g id="node11" class="node"><title>Node10</title>
<polygon fill="none" stroke="#bfbfbf" points="516,-0.5 516,-19.5 594,-19.5 594,-0.5 516,-0.5"/>
<text text-anchor="middle" x="555" y="-7.5" font-family="Helvetica,sans-Serif" font-size="10.00">unordered_set</text>
</g>
<!-- Node1&#45;&gt;Node10 -->
<g id="edge10" class="edge"><title>Node1&#45;&gt;Node10</title>
<path fill="none" stroke="midnightblue" d="M304.139,-56.4867C352.51,-47.906 429.487,-34.1797 505.712,-20.2251"/>
<polygon fill="midnightblue" stroke="midnightblue" points="506.767,-23.5902 515.972,-18.3446 505.505,-16.7049 506.767,-23.5902"/>
</g>
</g>
</svg>
