<?xml version="1.0" encoding="UTF-8" standalone="no"?>
<!DOCTYPE svg PUBLIC "-//W3C//DTD SVG 1.1//EN"
 "http://www.w3.org/Graphics/SVG/1.1/DTD/svg11.dtd">
<!-- Generated by graphviz version 2.38.0 (20140413.2041)
 -->
<!-- Title: C&#45;Syncker/include/ProcessadorDeEntradas.h Pages: 1 -->
<svg width="485pt" height="95pt"
 viewBox="0.00 0.00 485.00 95.00" xmlns="http://www.w3.org/2000/svg" xmlns:xlink="http://www.w3.org/1999/xlink">
<g id="graph0" class="graph" transform="scale(1 1) rotate(0) translate(4 91)">
<title>C&#45;Syncker/include/ProcessadorDeEntradas.h</title>
<!-- Node0 -->
<g id="node1" class="node"><title>Node0</title>
<polygon fill="#bfbfbf" stroke="black" points="118.5,-56.5 118.5,-86.5 273.5,-86.5 273.5,-56.5 118.5,-56.5"/>
<text text-anchor="start" x="126.5" y="-74.5" font-family="Helvetica,sans-Serif" font-size="10.00">C&#45;Syncker/include/Processador</text>
<text text-anchor="middle" x="196" y="-63.5" font-family="Helvetica,sans-Serif" font-size="10.00">DeEntradas.h</text>
</g>
<!-- Node1 -->
<g id="node2" class="node"><title>Node1</title>
<polygon fill="none" stroke="#bfbfbf" points="0,-0.5 0,-19.5 54,-19.5 54,-0.5 0,-0.5"/>
<text text-anchor="middle" x="27" y="-7.5" font-family="Helvetica,sans-Serif" font-size="10.00">iostream</text>
</g>
<!-- Node0&#45;&gt;Node1 -->
<g id="edge1" class="edge"><title>Node0&#45;&gt;Node1</title>
<path fill="none" stroke="midnightblue" d="M155.949,-56.3993C127.088,-46.238 88.5545,-32.6716 61.1467,-23.0221"/>
<polygon fill="midnightblue" stroke="midnightblue" points="62.1858,-19.6774 51.591,-19.6578 59.8611,-26.2801 62.1858,-19.6774"/>
</g>
<!-- Node2 -->
<g id="node3" class="node"><title>Node2</title>
<polygon fill="none" stroke="#bfbfbf" points="72.5,-0.5 72.5,-19.5 101.5,-19.5 101.5,-0.5 72.5,-0.5"/>
<text text-anchor="middle" x="87" y="-7.5" font-family="Helvetica,sans-Serif" font-size="10.00">list</text>
</g>
<!-- Node0&#45;&gt;Node2 -->
<g id="edge2" class="edge"><title>Node0&#45;&gt;Node2</title>
<path fill="none" stroke="midnightblue" d="M170.169,-56.3993C152.108,-46.5408 128.177,-33.4772 110.623,-23.8951"/>
<polygon fill="midnightblue" stroke="midnightblue" points="112.059,-20.6916 101.605,-18.9723 108.705,-26.8358 112.059,-20.6916"/>
</g>
<!-- Node3 -->
<g id="node4" class="node"><title>Node3</title>
<polygon fill="none" stroke="#bfbfbf" points="119.5,-0.5 119.5,-19.5 160.5,-19.5 160.5,-0.5 119.5,-0.5"/>
<text text-anchor="middle" x="140" y="-7.5" font-family="Helvetica,sans-Serif" font-size="10.00">string</text>
</g>
<!-- Node0&#45;&gt;Node3 -->
<g id="edge3" class="edge"><title>Node0&#45;&gt;Node3</title>
<path fill="none" stroke="midnightblue" d="M182.729,-56.3993C174.424,-47.575 163.701,-36.1827 155.076,-27.0178"/>
<polygon fill="midnightblue" stroke="midnightblue" points="157.551,-24.541 148.148,-19.6578 152.453,-29.3386 157.551,-24.541"/>
</g>
<!-- Node4 -->
<g id="node5" class="node"><title>Node4</title>
<polygon fill="none" stroke="#bfbfbf" points="178.5,-0.5 178.5,-19.5 213.5,-19.5 213.5,-0.5 178.5,-0.5"/>
<text text-anchor="middle" x="196" y="-7.5" font-family="Helvetica,sans-Serif" font-size="10.00">map</text>
</g>
<!-- Node0&#45;&gt;Node4 -->
<g id="edge4" class="edge"><title>Node0&#45;&gt;Node4</title>
<path fill="none" stroke="midnightblue" d="M196,-56.3993C196,-48.4664 196,-38.458 196,-29.8583"/>
<polygon fill="midnightblue" stroke="midnightblue" points="199.5,-29.6577 196,-19.6578 192.5,-29.6578 199.5,-29.6577"/>
</g>
<!-- Node5 -->
<g id="node6" class="node"><title>Node5</title>
<polygon fill="none" stroke="#bfbfbf" points="231.5,-0.5 231.5,-19.5 314.5,-19.5 314.5,-0.5 231.5,-0.5"/>
<text text-anchor="middle" x="273" y="-7.5" font-family="Helvetica,sans-Serif" font-size="10.00">unordered_map</text>
</g>
<!-- Node0&#45;&gt;Node5 -->
<g id="edge5" class="edge"><title>Node0&#45;&gt;Node5</title>
<path fill="none" stroke="midnightblue" d="M214.248,-56.3993C226.129,-47.2185 241.607,-35.2579 253.694,-25.9182"/>
<polygon fill="midnightblue" stroke="midnightblue" points="256.023,-28.5418 261.796,-19.6578 251.743,-23.0028 256.023,-28.5418"/>
</g>
<!-- Node6 -->
<g id="node7" class="node"><title>Node6</title>
<polygon fill="none" stroke="#bfbfbf" points="333,-0.5 333,-19.5 385,-19.5 385,-0.5 333,-0.5"/>
<text text-anchor="middle" x="359" y="-7.5" font-family="Helvetica,sans-Serif" font-size="10.00">sstream</text>
</g>
<!-- Node0&#45;&gt;Node6 -->
<g id="edge6" class="edge"><title>Node0&#45;&gt;Node6</title>
<path fill="none" stroke="midnightblue" d="M234.629,-56.3993C262.344,-46.2826 299.305,-32.7905 325.717,-23.1493"/>
<polygon fill="midnightblue" stroke="midnightblue" points="327.089,-26.3746 335.282,-19.6578 324.688,-19.799 327.089,-26.3746"/>
</g>
<!-- Node7 -->
<g id="node8" class="node"><title>Node7</title>
<polygon fill="none" stroke="#bfbfbf" points="403,-0.5 403,-19.5 477,-19.5 477,-0.5 403,-0.5"/>
<text text-anchor="middle" x="440" y="-7.5" font-family="Helvetica,sans-Serif" font-size="10.00">bits/stdc++.h</text>
</g>
<!-- Node0&#45;&gt;Node7 -->
<g id="edge7" class="edge"><title>Node0&#45;&gt;Node7</title>
<path fill="none" stroke="midnightblue" d="M253.516,-56.4747C296.805,-45.9183 355.296,-31.6552 395.154,-21.9358"/>
<polygon fill="midnightblue" stroke="midnightblue" points="396.231,-25.2759 405.117,-19.5064 394.572,-18.4752 396.231,-25.2759"/>
</g>
</g>
</svg>
