<?xml version="1.0" encoding="UTF-8" standalone="no"?>
<!DOCTYPE svg PUBLIC "-//W3C//DTD SVG 1.1//EN"
 "http://www.w3.org/Graphics/SVG/1.1/DTD/svg11.dtd">
<!-- Generated by graphviz version 2.38.0 (20140413.2041)
 -->
<!-- Title: C&#45;Syncker/src/ProcessadorDeEntradas.cpp Pages: 1 -->
<svg width="485pt" height="151pt"
 viewBox="0.00 0.00 485.00 151.00" xmlns="http://www.w3.org/2000/svg" xmlns:xlink="http://www.w3.org/1999/xlink">
<g id="graph0" class="graph" transform="scale(1 1) rotate(0) translate(4 147)">
<title>C&#45;Syncker/src/ProcessadorDeEntradas.cpp</title>
<!-- Node0 -->
<g id="node1" class="node"><title>Node0</title>
<polygon fill="#bfbfbf" stroke="black" points="127.5,-112.5 127.5,-142.5 264.5,-142.5 264.5,-112.5 127.5,-112.5"/>
<text text-anchor="start" x="135.5" y="-130.5" font-family="Helvetica,sans-Serif" font-size="10.00">C&#45;Syncker/src/Processador</text>
<text text-anchor="middle" x="196" y="-119.5" font-family="Helvetica,sans-Serif" font-size="10.00">DeEntradas.cpp</text>
</g>
<!-- Node1 -->
<g id="node2" class="node"><title>Node1</title>
<g id="a_node2"><a xlink:href="_processador_de_entradas_8h.html" target="_top" xlink:title="ProcessadorDeEntradas.h">
<polygon fill="none" stroke="black" points="130.5,-56.5 130.5,-75.5 261.5,-75.5 261.5,-56.5 130.5,-56.5"/>
<text text-anchor="middle" x="196" y="-63.5" font-family="Helvetica,sans-Serif" font-size="10.00">ProcessadorDeEntradas.h</text>
</a>
</g>
</g>
<!-- Node0&#45;&gt;Node1 -->
<g id="edge1" class="edge"><title>Node0&#45;&gt;Node1</title>
<path fill="none" stroke="midnightblue" d="M196,-112.399C196,-104.466 196,-94.458 196,-85.8583"/>
<polygon fill="midnightblue" stroke="midnightblue" points="199.5,-85.6577 196,-75.6578 192.5,-85.6578 199.5,-85.6577"/>
</g>
<!-- Node2 -->
<g id="node3" class="node"><title>Node2</title>
<polygon fill="none" stroke="#bfbfbf" points="0,-0.5 0,-19.5 54,-19.5 54,-0.5 0,-0.5"/>
<text text-anchor="middle" x="27" y="-7.5" font-family="Helvetica,sans-Serif" font-size="10.00">iostream</text>
</g>
<!-- Node1&#45;&gt;Node2 -->
<g id="edge2" class="edge"><title>Node1&#45;&gt;Node2</title>
<path fill="none" stroke="midnightblue" d="M169.221,-56.4435C140.667,-47.3196 95.2674,-32.8133 63.4631,-22.6509"/>
<polygon fill="midnightblue" stroke="midnightblue" points="64.2441,-19.2262 53.6533,-19.5164 62.1135,-25.8941 64.2441,-19.2262"/>
</g>
<!-- Node3 -->
<g id="node4" class="node"><title>Node3</title>
<polygon fill="none" stroke="#bfbfbf" points="72.5,-0.5 72.5,-19.5 101.5,-19.5 101.5,-0.5 72.5,-0.5"/>
<text text-anchor="middle" x="87" y="-7.5" font-family="Helvetica,sans-Serif" font-size="10.00">list</text>
</g>
<!-- Node1&#45;&gt;Node3 -->
<g id="edge3" class="edge"><title>Node1&#45;&gt;Node3</title>
<path fill="none" stroke="midnightblue" d="M178.487,-56.324C160.096,-47.2129 131.066,-32.8309 110.649,-22.7162"/>
<polygon fill="midnightblue" stroke="midnightblue" points="112.188,-19.5726 101.674,-18.2695 109.081,-25.845 112.188,-19.5726"/>
</g>
<!-- Node4 -->
<g id="node5" class="node"><title>Node4</title>
<polygon fill="none" stroke="#bfbfbf" points="119.5,-0.5 119.5,-19.5 160.5,-19.5 160.5,-0.5 119.5,-0.5"/>
<text text-anchor="middle" x="140" y="-7.5" font-family="Helvetica,sans-Serif" font-size="10.00">string</text>
</g>
<!-- Node1&#45;&gt;Node4 -->
<g id="edge4" class="edge"><title>Node1&#45;&gt;Node4</title>
<path fill="none" stroke="midnightblue" d="M187.003,-56.324C178.806,-48.4196 166.494,-36.5482 156.528,-26.9377"/>
<polygon fill="midnightblue" stroke="midnightblue" points="158.789,-24.2558 149.161,-19.8339 153.93,-29.2947 158.789,-24.2558"/>
</g>
<!-- Node5 -->
<g id="node6" class="node"><title>Node5</title>
<polygon fill="none" stroke="#bfbfbf" points="178.5,-0.5 178.5,-19.5 213.5,-19.5 213.5,-0.5 178.5,-0.5"/>
<text text-anchor="middle" x="196" y="-7.5" font-family="Helvetica,sans-Serif" font-size="10.00">map</text>
</g>
<!-- Node1&#45;&gt;Node5 -->
<g id="edge5" class="edge"><title>Node1&#45;&gt;Node5</title>
<path fill="none" stroke="midnightblue" d="M196,-56.083C196,-49.0059 196,-38.8611 196,-29.9865"/>
<polygon fill="midnightblue" stroke="midnightblue" points="199.5,-29.751 196,-19.7511 192.5,-29.7511 199.5,-29.751"/>
</g>
<!-- Node6 -->
<g id="node7" class="node"><title>Node6</title>
<polygon fill="none" stroke="#bfbfbf" points="231.5,-0.5 231.5,-19.5 314.5,-19.5 314.5,-0.5 231.5,-0.5"/>
<text text-anchor="middle" x="273" y="-7.5" font-family="Helvetica,sans-Serif" font-size="10.00">unordered_map</text>
</g>
<!-- Node1&#45;&gt;Node6 -->
<g id="edge6" class="edge"><title>Node1&#45;&gt;Node6</title>
<path fill="none" stroke="midnightblue" d="M208.371,-56.324C220.158,-48.0577 238.132,-35.4527 252.136,-25.6322"/>
<polygon fill="midnightblue" stroke="midnightblue" points="254.482,-28.2619 260.659,-19.6545 250.462,-22.5307 254.482,-28.2619"/>
</g>
<!-- Node7 -->
<g id="node8" class="node"><title>Node7</title>
<polygon fill="none" stroke="#bfbfbf" points="333,-0.5 333,-19.5 385,-19.5 385,-0.5 333,-0.5"/>
<text text-anchor="middle" x="359" y="-7.5" font-family="Helvetica,sans-Serif" font-size="10.00">sstream</text>
</g>
<!-- Node1&#45;&gt;Node7 -->
<g id="edge7" class="edge"><title>Node1&#45;&gt;Node7</title>
<path fill="none" stroke="midnightblue" d="M221.828,-56.4435C249.249,-47.3591 292.777,-32.9388 323.432,-22.7831"/>
<polygon fill="midnightblue" stroke="midnightblue" points="324.901,-25.9837 333.293,-19.5164 322.7,-19.3389 324.901,-25.9837"/>
</g>
<!-- Node8 -->
<g id="node9" class="node"><title>Node8</title>
<polygon fill="none" stroke="#bfbfbf" points="403,-0.5 403,-19.5 477,-19.5 477,-0.5 403,-0.5"/>
<text text-anchor="middle" x="440" y="-7.5" font-family="Helvetica,sans-Serif" font-size="10.00">bits/stdc++.h</text>
</g>
<!-- Node1&#45;&gt;Node8 -->
<g id="edge8" class="edge"><title>Node1&#45;&gt;Node8</title>
<path fill="none" stroke="midnightblue" d="M234.663,-56.4435C277.513,-46.9602 346.638,-31.662 392.688,-21.4707"/>
<polygon fill="midnightblue" stroke="midnightblue" points="393.711,-24.829 402.719,-19.2508 392.199,-17.9944 393.711,-24.829"/>
</g>
</g>
</svg>
