<?xml version="1.0" encoding="UTF-8" standalone="no"?>
<!DOCTYPE svg PUBLIC "-//W3C//DTD SVG 1.1//EN"
 "http://www.w3.org/Graphics/SVG/1.1/DTD/svg11.dtd">
<!-- Generated by graphviz version 2.38.0 (20140413.2041)
 -->
<!-- Title: C&#45;Syncker/include/ProcessadorDeListas.h Pages: 1 -->
<svg width="286pt" height="106pt"
 viewBox="0.00 0.00 285.50 106.00" xmlns="http://www.w3.org/2000/svg" xmlns:xlink="http://www.w3.org/1999/xlink">
<g id="graph0" class="graph" transform="scale(1 1) rotate(0) translate(4 102)">
<title>C&#45;Syncker/include/ProcessadorDeListas.h</title>
<!-- Node10 -->
<g id="node1" class="node"><title>Node10</title>
<polygon fill="#bfbfbf" stroke="black" points="57.5,-67.5 57.5,-97.5 212.5,-97.5 212.5,-67.5 57.5,-67.5"/>
<text text-anchor="start" x="65.5" y="-85.5" font-family="Helvetica,sans-Serif" font-size="10.00">C&#45;Syncker/include/Processador</text>
<text text-anchor="middle" x="135" y="-74.5" font-family="Helvetica,sans-Serif" font-size="10.00">DeListas.h</text>
</g>
<!-- Node11 -->
<g id="node2" class="node"><title>Node11</title>
<g id="a_node2"><a xlink:href="main_8cpp.html" target="_top" xlink:title="C&#45;Syncker/src/main.cpp">
<polygon fill="none" stroke="black" points="0,-6 0,-25 122,-25 122,-6 0,-6"/>
<text text-anchor="middle" x="61" y="-13" font-family="Helvetica,sans-Serif" font-size="10.00">C&#45;Syncker/src/main.cpp</text>
</a>
</g>
</g>
<!-- Node10&#45;&gt;Node11 -->
<g id="edge1" class="edge"><title>Node10&#45;&gt;Node11</title>
<path fill="none" stroke="midnightblue" d="M111.288,-60.6722C97.6251,-48.6707 81.1738,-34.2203 70.8984,-25.1945"/>
<polygon fill="midnightblue" stroke="midnightblue" points="109.12,-63.4261 118.943,-67.396 113.74,-58.1669 109.12,-63.4261"/>
</g>
<!-- Node12 -->
<g id="node3" class="node"><title>Node12</title>
<g id="a_node3"><a xlink:href="_processador_de_listas_8cpp.html" target="_top" xlink:title="C&#45;Syncker/src/Processador\lDeListas.cpp">
<polygon fill="none" stroke="black" points="140.5,-0.5 140.5,-30.5 277.5,-30.5 277.5,-0.5 140.5,-0.5"/>
<text text-anchor="start" x="148.5" y="-18.5" font-family="Helvetica,sans-Serif" font-size="10.00">C&#45;Syncker/src/Processador</text>
<text text-anchor="middle" x="209" y="-7.5" font-family="Helvetica,sans-Serif" font-size="10.00">DeListas.cpp</text>
</a>
</g>
</g>
<!-- Node10&#45;&gt;Node12 -->
<g id="edge2" class="edge"><title>Node10&#45;&gt;Node12</title>
<path fill="none" stroke="midnightblue" d="M158.796,-60.5978C169.97,-50.7831 182.993,-39.3442 192.974,-30.5765"/>
<polygon fill="midnightblue" stroke="midnightblue" points="156.26,-58.1669 151.057,-67.396 160.88,-63.4261 156.26,-58.1669"/>
</g>
</g>
</svg>
