<?xml version="1.0" encoding="UTF-8" standalone="no"?>
<!DOCTYPE svg PUBLIC "-//W3C//DTD SVG 1.1//EN"
 "http://www.w3.org/Graphics/SVG/1.1/DTD/svg11.dtd">
<!-- Generated by graphviz version 2.38.0 (20140413.2041)
 -->
<!-- Title: ProcessadorDeListas::calculeDerivadaDiscreta Pages: 1 -->
<svg width="387pt" height="61pt"
 viewBox="0.00 0.00 387.00 61.00" xmlns="http://www.w3.org/2000/svg" xmlns:xlink="http://www.w3.org/1999/xlink">
<g id="graph0" class="graph" transform="scale(1 1) rotate(0) translate(4 57)">
<title>ProcessadorDeListas::calculeDerivadaDiscreta</title>
<!-- Node14 -->
<g id="node1" class="node"><title>Node14</title>
<polygon fill="#bfbfbf" stroke="black" points="0,-22.5 0,-52.5 129,-52.5 129,-22.5 0,-22.5"/>
<text text-anchor="start" x="8" y="-40.5" font-family="Helvetica,sans-Serif" font-size="10.00">ProcessadorDeListas</text>
<text text-anchor="middle" x="64.5" y="-29.5" font-family="Helvetica,sans-Serif" font-size="10.00">::calculeDerivadaDiscreta</text>
</g>
<!-- Node15 -->
<g id="node2" class="node"><title>Node15</title>
<g id="a_node2"><a xlink:href="main_8cpp.html#ae66f6b31b5ad750f1fe042a706a4e3d4" target="_top" xlink:title="main">
<polygon fill="none" stroke="black" points="341,-28 341,-47 379,-47 379,-28 341,-28"/>
<text text-anchor="middle" x="360" y="-35" font-family="Helvetica,sans-Serif" font-size="10.00">main</text>
</a>
</g>
</g>
<!-- Node14&#45;&gt;Node15 -->
<g id="edge1" class="edge"><title>Node14&#45;&gt;Node15</title>
<path fill="none" stroke="midnightblue" d="M139.215,-39.9563C186.582,-41.1557 249.429,-42.0425 305,-40.5 316.826,-40.1717 330.092,-39.4399 340.516,-38.7812"/>
<polygon fill="midnightblue" stroke="midnightblue" points="139.136,-36.4531 129.047,-39.6881 138.951,-43.4507 139.136,-36.4531"/>
</g>
<!-- Node16 -->
<g id="node3" class="node"><title>Node16</title>
<g id="a_node3"><a xlink:href="class_processador_de_listas.html#a39609c84bee80b081bbfe426c7766c73" target="_top" xlink:title="Sincroniza o tamanho de duas listas numéricas. ">
<polygon fill="none" stroke="black" points="165,-0.5 165,-30.5 305,-30.5 305,-0.5 165,-0.5"/>
<text text-anchor="start" x="173" y="-18.5" font-family="Helvetica,sans-Serif" font-size="10.00">ProcessadorDeListas</text>
<text text-anchor="middle" x="235" y="-7.5" font-family="Helvetica,sans-Serif" font-size="10.00">::sincronizeListasNumericas</text>
</a>
</g>
</g>
<!-- Node14&#45;&gt;Node16 -->
<g id="edge2" class="edge"><title>Node14&#45;&gt;Node16</title>
<path fill="none" stroke="midnightblue" d="M139.143,-27.8849C147.687,-26.7694 156.378,-25.6346 164.859,-24.5274"/>
<polygon fill="midnightblue" stroke="midnightblue" points="138.665,-24.4175 129.203,-29.1827 139.572,-31.3586 138.665,-24.4175"/>
</g>
<!-- Node16&#45;&gt;Node15 -->
<g id="edge3" class="edge"><title>Node16&#45;&gt;Node15</title>
<path fill="none" stroke="midnightblue" d="M315.08,-29.6444C324.535,-31.3355 333.384,-32.9184 340.627,-34.2138"/>
<polygon fill="midnightblue" stroke="midnightblue" points="315.51,-26.1659 305.05,-27.8505 314.278,-33.0566 315.51,-26.1659"/>
</g>
</g>
</svg>
