<?xml version="1.0" encoding="UTF-8" standalone="no"?>
<!DOCTYPE svg PUBLIC "-//W3C//DTD SVG 1.1//EN"
 "http://www.w3.org/Graphics/SVG/1.1/DTD/svg11.dtd">
<!-- Generated by graphviz version 2.38.0 (20140413.2041)
 -->
<!-- Title: ProcessadorDeListas::sincronizeListasNumericas Pages: 1 -->
<svg width="322pt" height="372pt"
 viewBox="0.00 0.00 322.00 371.50" xmlns="http://www.w3.org/2000/svg" xmlns:xlink="http://www.w3.org/1999/xlink">
<g id="graph0" class="graph" transform="scale(1 1) rotate(0) translate(4 367.5)">
<title>ProcessadorDeListas::sincronizeListasNumericas</title>
<!-- Node60 -->
<g id="node1" class="node"><title>Node60</title>
<polygon fill="#bfbfbf" stroke="black" points="0,-171.5 0,-201.5 140,-201.5 140,-171.5 0,-171.5"/>
<text text-anchor="start" x="8" y="-189.5" font-family="Helvetica,sans-Serif" font-size="10.00">ProcessadorDeListas</text>
<text text-anchor="middle" x="70" y="-178.5" font-family="Helvetica,sans-Serif" font-size="10.00">::sincronizeListasNumericas</text>
</g>
<!-- Node61 -->
<g id="node2" class="node"><title>Node61</title>
<g id="a_node2"><a xlink:href="class_processador_de_listas.html#a868215a0623d68b702f804615674f07d" target="_top" xlink:title="Calcula o Mínimo Múltiplo Comum (MMC). ">
<polygon fill="none" stroke="black" points="176,-344 176,-363 314,-363 314,-344 176,-344"/>
<text text-anchor="middle" x="245" y="-351" font-family="Helvetica,sans-Serif" font-size="10.00">ProcessadorDeListas::mmc</text>
</a>
</g>
</g>
<!-- Node60&#45;&gt;Node61 -->
<g id="edge1" class="edge"><title>Node60&#45;&gt;Node61</title>
<path fill="none" stroke="midnightblue" d="M77.4857,-201.684C91.1331,-231.782 125.756,-299.151 176,-334.5 178.843,-336.5 181.891,-338.291 185.063,-339.893"/>
<polygon fill="midnightblue" stroke="midnightblue" points="183.701,-343.117 194.265,-343.929 186.513,-336.707 183.701,-343.117"/>
</g>
<!-- Node62 -->
<g id="node3" class="node"><title>Node62</title>
<g id="a_node3"><a xlink:href="class_processador_de_listas.html#abc7452bd3ee8819e996fb83c59173bf2" target="_top" xlink:title="ProcessadorDeListas\l::coeficienteDeRepeticoes">
<polygon fill="none" stroke="black" points="179,-294.5 179,-324.5 311,-324.5 311,-294.5 179,-294.5"/>
<text text-anchor="start" x="187" y="-312.5" font-family="Helvetica,sans-Serif" font-size="10.00">ProcessadorDeListas</text>
<text text-anchor="middle" x="245" y="-301.5" font-family="Helvetica,sans-Serif" font-size="10.00">::coeficienteDeRepeticoes</text>
</a>
</g>
</g>
<!-- Node60&#45;&gt;Node62 -->
<g id="edge2" class="edge"><title>Node60&#45;&gt;Node62</title>
<path fill="none" stroke="midnightblue" d="M83.3917,-201.644C101.632,-223.051 137.712,-262.149 176,-285.5 178.64,-287.11 181.404,-288.633 184.243,-290.071"/>
<polygon fill="midnightblue" stroke="midnightblue" points="182.964,-293.335 193.508,-294.373 185.912,-286.987 182.964,-293.335"/>
</g>
<!-- Node63 -->
<g id="node4" class="node"><title>Node63</title>
<g id="a_node4"><a xlink:href="class_processador_de_listas.html#a973e3fa18e8101ad289db6d970f9333c" target="_top" xlink:title="Desdobra/Repete uma lista. ">
<polygon fill="none" stroke="black" points="190,-245.5 190,-275.5 300,-275.5 300,-245.5 190,-245.5"/>
<text text-anchor="start" x="198" y="-263.5" font-family="Helvetica,sans-Serif" font-size="10.00">ProcessadorDeListas</text>
<text text-anchor="middle" x="245" y="-252.5" font-family="Helvetica,sans-Serif" font-size="10.00">::desdobreListas</text>
</a>
</g>
</g>
<!-- Node60&#45;&gt;Node63 -->
<g id="edge3" class="edge"><title>Node60&#45;&gt;Node63</title>
<path fill="none" stroke="midnightblue" d="M100.496,-201.569C121.336,-211.962 150.063,-225.782 176,-236.5 180.397,-238.317 184.986,-240.123 189.615,-241.882"/>
<polygon fill="midnightblue" stroke="midnightblue" points="188.528,-245.212 199.121,-245.414 190.966,-238.65 188.528,-245.212"/>
</g>
<!-- Node64 -->
<g id="node5" class="node"><title>Node64</title>
<g id="a_node5"><a xlink:href="class_processador_de_listas.html#a9c839959d797222e3d7f3fb7beb88896" target="_top" xlink:title="Acumula (soma) os valores de uma lista. ">
<polygon fill="none" stroke="black" points="182,-196.5 182,-226.5 308,-226.5 308,-196.5 182,-196.5"/>
<text text-anchor="start" x="190" y="-214.5" font-family="Helvetica,sans-Serif" font-size="10.00">ProcessadorDeListas</text>
<text text-anchor="middle" x="245" y="-203.5" font-family="Helvetica,sans-Serif" font-size="10.00">::acumuleValoresDaLista</text>
</a>
</g>
</g>
<!-- Node60&#45;&gt;Node64 -->
<g id="edge4" class="edge"><title>Node60&#45;&gt;Node64</title>
<path fill="none" stroke="midnightblue" d="M140.369,-196.524C150.77,-198.027 161.514,-199.58 171.969,-201.091"/>
<polygon fill="midnightblue" stroke="midnightblue" points="171.485,-204.557 181.883,-202.524 172.486,-197.629 171.485,-204.557"/>
</g>
<!-- Node65 -->
<g id="node6" class="node"><title>Node65</title>
<g id="a_node6"><a xlink:href="class_processador_de_listas.html#af1505b17c1556665a2ecb5247188d4c4" target="_top" xlink:title="Dadas duas listas, realiza uma junção entre elas (semelhante ao append()). ">
<polygon fill="none" stroke="black" points="190,-147.5 190,-177.5 300,-177.5 300,-147.5 190,-147.5"/>
<text text-anchor="start" x="198" y="-165.5" font-family="Helvetica,sans-Serif" font-size="10.00">ProcessadorDeListas</text>
<text text-anchor="middle" x="245" y="-154.5" font-family="Helvetica,sans-Serif" font-size="10.00">::junteListas</text>
</a>
</g>
</g>
<!-- Node60&#45;&gt;Node65 -->
<g id="edge5" class="edge"><title>Node60&#45;&gt;Node65</title>
<path fill="none" stroke="midnightblue" d="M140.369,-176.877C153.349,-175.076 166.866,-173.201 179.686,-171.422"/>
<polygon fill="midnightblue" stroke="midnightblue" points="180.37,-174.861 189.794,-170.02 179.408,-167.927 180.37,-174.861"/>
</g>
<!-- Node66 -->
<g id="node7" class="node"><title>Node66</title>
<g id="a_node7"><a xlink:href="class_processador_de_listas.html#ae9e4af0b3ba22ece83efef5924173a1c" target="_top" xlink:title="Dada uma lista contendo repetições de elementos, faz uma remoção desses valores. ">
<polygon fill="none" stroke="black" points="190,-98.5 190,-128.5 300,-128.5 300,-98.5 190,-98.5"/>
<text text-anchor="start" x="198" y="-116.5" font-family="Helvetica,sans-Serif" font-size="10.00">ProcessadorDeListas</text>
<text text-anchor="middle" x="245" y="-105.5" font-family="Helvetica,sans-Serif" font-size="10.00">::removaRepeticoes</text>
</a>
</g>
</g>
<!-- Node60&#45;&gt;Node66 -->
<g id="edge6" class="edge"><title>Node60&#45;&gt;Node66</title>
<path fill="none" stroke="midnightblue" d="M102.428,-171.371C123.147,-161.586 150.979,-148.801 176,-138.5 181.089,-136.405 186.424,-134.296 191.773,-132.239"/>
<polygon fill="midnightblue" stroke="midnightblue" points="193.254,-135.421 201.366,-128.606 190.775,-128.874 193.254,-135.421"/>
</g>
<!-- Node67 -->
<g id="node8" class="node"><title>Node67</title>
<g id="a_node8"><a xlink:href="class_processador_de_listas.html#a0c2160bdd962834db2929a6f8a9acd7a" target="_top" xlink:title="Ordena listas. ">
<polygon fill="none" stroke="black" points="190,-49.5 190,-79.5 300,-79.5 300,-49.5 190,-49.5"/>
<text text-anchor="start" x="198" y="-67.5" font-family="Helvetica,sans-Serif" font-size="10.00">ProcessadorDeListas</text>
<text text-anchor="middle" x="245" y="-56.5" font-family="Helvetica,sans-Serif" font-size="10.00">::ordeneLista</text>
</a>
</g>
</g>
<!-- Node60&#45;&gt;Node67 -->
<g id="edge7" class="edge"><title>Node60&#45;&gt;Node67</title>
<path fill="none" stroke="midnightblue" d="M83.8084,-171.393C102.274,-150.444 138.318,-112.554 176,-89.5 179.345,-87.4538 182.883,-85.5352 186.518,-83.7435"/>
<polygon fill="midnightblue" stroke="midnightblue" points="188.056,-86.8887 195.699,-79.5508 185.148,-80.5213 188.056,-86.8887"/>
</g>
<!-- Node68 -->
<g id="node9" class="node"><title>Node68</title>
<g id="a_node9"><a xlink:href="class_processador_de_listas.html#a5f32d34c750af53d0e0db52f7cf1c147" target="_top" xlink:title="Calcula a derivada discreta (vetor intervalar) de uma lista. ">
<polygon fill="none" stroke="black" points="180.5,-0.5 180.5,-30.5 309.5,-30.5 309.5,-0.5 180.5,-0.5"/>
<text text-anchor="start" x="188.5" y="-18.5" font-family="Helvetica,sans-Serif" font-size="10.00">ProcessadorDeListas</text>
<text text-anchor="middle" x="245" y="-7.5" font-family="Helvetica,sans-Serif" font-size="10.00">::calculeDerivadaDiscreta</text>
</a>
</g>
</g>
<!-- Node60&#45;&gt;Node68 -->
<g id="edge8" class="edge"><title>Node60&#45;&gt;Node68</title>
<path fill="none" stroke="midnightblue" d="M78.0071,-171.406C92.3414,-142.096 127.774,-77.1469 176,-40.5 178.425,-38.6569 181.001,-36.9388 183.675,-35.3385"/>
<polygon fill="midnightblue" stroke="midnightblue" points="185.329,-38.4231 192.496,-30.6198 182.027,-32.2508 185.329,-38.4231"/>
</g>
</g>
</svg>
