<?xml version="1.0" encoding="UTF-8" standalone="no"?>
<!DOCTYPE svg PUBLIC "-//W3C//DTD SVG 1.1//EN"
 "http://www.w3.org/Graphics/SVG/1.1/DTD/svg11.dtd">
<!-- Generated by graphviz version 2.38.0 (20140413.2041)
 -->
<!-- Title: ProcessadorDeListas::acumuleValoresDaLista Pages: 1 -->
<svg width="384pt" height="61pt"
 viewBox="0.00 0.00 384.00 61.00" xmlns="http://www.w3.org/2000/svg" xmlns:xlink="http://www.w3.org/1999/xlink">
<g id="graph0" class="graph" transform="scale(1 1) rotate(0) translate(4 57)">
<title>ProcessadorDeListas::acumuleValoresDaLista</title>
<!-- Node5 -->
<g id="node1" class="node"><title>Node5</title>
<polygon fill="#bfbfbf" stroke="black" points="0,-22.5 0,-52.5 126,-52.5 126,-22.5 0,-22.5"/>
<text text-anchor="start" x="8" y="-40.5" font-family="Helvetica,sans-Serif" font-size="10.00">ProcessadorDeListas</text>
<text text-anchor="middle" x="63" y="-29.5" font-family="Helvetica,sans-Serif" font-size="10.00">::acumuleValoresDaLista</text>
</g>
<!-- Node6 -->
<g id="node2" class="node"><title>Node6</title>
<g id="a_node2"><a xlink:href="main_8cpp.html#ae66f6b31b5ad750f1fe042a706a4e3d4" target="_top" xlink:title="main">
<polygon fill="none" stroke="black" points="338,-28 338,-47 376,-47 376,-28 338,-28"/>
<text text-anchor="middle" x="357" y="-35" font-family="Helvetica,sans-Serif" font-size="10.00">main</text>
</a>
</g>
</g>
<!-- Node5&#45;&gt;Node6 -->
<g id="edge1" class="edge"><title>Node5&#45;&gt;Node6</title>
<path fill="none" stroke="midnightblue" d="M136.271,-39.9246C183.453,-41.134 246.392,-42.0435 302,-40.5 313.826,-40.1717 327.092,-39.4399 337.516,-38.7812"/>
<polygon fill="midnightblue" stroke="midnightblue" points="136.239,-36.4226 126.149,-39.6544 136.052,-43.4201 136.239,-36.4226"/>
</g>
<!-- Node7 -->
<g id="node3" class="node"><title>Node7</title>
<g id="a_node3"><a xlink:href="class_processador_de_listas.html#a39609c84bee80b081bbfe426c7766c73" target="_top" xlink:title="Sincroniza o tamanho de duas listas numéricas. ">
<polygon fill="none" stroke="black" points="162,-0.5 162,-30.5 302,-30.5 302,-0.5 162,-0.5"/>
<text text-anchor="start" x="170" y="-18.5" font-family="Helvetica,sans-Serif" font-size="10.00">ProcessadorDeListas</text>
<text text-anchor="middle" x="232" y="-7.5" font-family="Helvetica,sans-Serif" font-size="10.00">::sincronizeListasNumericas</text>
</a>
</g>
</g>
<!-- Node5&#45;&gt;Node7 -->
<g id="edge2" class="edge"><title>Node5&#45;&gt;Node7</title>
<path fill="none" stroke="midnightblue" d="M136.361,-27.9675C144.785,-26.8577 153.364,-25.7276 161.745,-24.6234"/>
<polygon fill="midnightblue" stroke="midnightblue" points="135.642,-24.5318 126.185,-29.308 136.556,-31.4719 135.642,-24.5318"/>
</g>
<!-- Node7&#45;&gt;Node6 -->
<g id="edge3" class="edge"><title>Node7&#45;&gt;Node6</title>
<path fill="none" stroke="midnightblue" d="M312.08,-29.6444C321.535,-31.3355 330.384,-32.9184 337.627,-34.2138"/>
<polygon fill="midnightblue" stroke="midnightblue" points="312.51,-26.1659 302.05,-27.8505 311.278,-33.0566 312.51,-26.1659"/>
</g>
</g>
</svg>
