<?xml version="1.0" encoding="UTF-8" standalone="no"?>
<!DOCTYPE svg PUBLIC "-//W3C//DTD SVG 1.1//EN"
 "http://www.w3.org/Graphics/SVG/1.1/DTD/svg11.dtd">
<!-- Generated by graphviz version 2.38.0 (20140413.2041)
 -->
<!-- Title: ProcessadorDeListas::mmc Pages: 1 -->
<svg width="396pt" height="137pt"
 viewBox="0.00 0.00 396.00 137.00" xmlns="http://www.w3.org/2000/svg" xmlns:xlink="http://www.w3.org/1999/xlink">
<g id="graph0" class="graph" transform="scale(1 1) rotate(0) translate(4 133)">
<title>ProcessadorDeListas::mmc</title>
<!-- Node42 -->
<g id="node1" class="node"><title>Node42</title>
<polygon fill="#bfbfbf" stroke="black" points="0,-55 0,-74 138,-74 138,-55 0,-55"/>
<text text-anchor="middle" x="69" y="-62" font-family="Helvetica,sans-Serif" font-size="10.00">ProcessadorDeListas::mmc</text>
</g>
<!-- Node43 -->
<g id="node2" class="node"><title>Node43</title>
<g id="a_node2"><a xlink:href="class_processador_de_listas.html#a54ea4b73726fb3f1ee461e644b0f127e" target="_top" xlink:title="Calcula o Mínimo Múltiplo Comum (MMC) com mais de dois elementos. ">
<polygon fill="none" stroke="black" points="189,-98.5 189,-128.5 299,-128.5 299,-98.5 189,-98.5"/>
<text text-anchor="start" x="197" y="-116.5" font-family="Helvetica,sans-Serif" font-size="10.00">ProcessadorDeListas</text>
<text text-anchor="middle" x="244" y="-105.5" font-family="Helvetica,sans-Serif" font-size="10.00">::calculeMMC</text>
</a>
</g>
</g>
<!-- Node42&#45;&gt;Node43 -->
<g id="edge1" class="edge"><title>Node42&#45;&gt;Node43</title>
<path fill="none" stroke="midnightblue" d="M113.659,-76.8657C136.822,-83.4265 165.469,-91.5403 189.91,-98.463"/>
<polygon fill="midnightblue" stroke="midnightblue" points="114.342,-73.4217 103.767,-74.064 112.435,-80.1568 114.342,-73.4217"/>
</g>
<!-- Node44 -->
<g id="node3" class="node"><title>Node44</title>
<g id="a_node3"><a xlink:href="class_processador_de_listas.html#a55820e47d04ab38190bdaf968a466398" target="_top" xlink:title="Faz associação um a um entre alturas e durações. ">
<polygon fill="none" stroke="black" points="177,-49.5 177,-79.5 311,-79.5 311,-49.5 177,-49.5"/>
<text text-anchor="start" x="185" y="-67.5" font-family="Helvetica,sans-Serif" font-size="10.00">ProcessadorDeListas</text>
<text text-anchor="middle" x="244" y="-56.5" font-family="Helvetica,sans-Serif" font-size="10.00">::associeAlturasEduracoes</text>
</a>
</g>
</g>
<!-- Node42&#45;&gt;Node44 -->
<g id="edge2" class="edge"><title>Node42&#45;&gt;Node44</title>
<path fill="none" stroke="midnightblue" d="M148.552,-64.5C157.998,-64.5 167.572,-64.5 176.817,-64.5"/>
<polygon fill="midnightblue" stroke="midnightblue" points="148.374,-61.0001 138.374,-64.5 148.374,-68.0001 148.374,-61.0001"/>
</g>
<!-- Node46 -->
<g id="node5" class="node"><title>Node46</title>
<g id="a_node5"><a xlink:href="class_processador_de_listas.html#a39609c84bee80b081bbfe426c7766c73" target="_top" xlink:title="Sincroniza o tamanho de duas listas numéricas. ">
<polygon fill="none" stroke="black" points="174,-0.5 174,-30.5 314,-30.5 314,-0.5 174,-0.5"/>
<text text-anchor="start" x="182" y="-18.5" font-family="Helvetica,sans-Serif" font-size="10.00">ProcessadorDeListas</text>
<text text-anchor="middle" x="244" y="-7.5" font-family="Helvetica,sans-Serif" font-size="10.00">::sincronizeListasNumericas</text>
</a>
</g>
</g>
<!-- Node42&#45;&gt;Node46 -->
<g id="edge4" class="edge"><title>Node42&#45;&gt;Node46</title>
<path fill="none" stroke="midnightblue" d="M113.659,-52.1343C136.822,-45.5735 165.469,-37.4597 189.91,-30.537"/>
<polygon fill="midnightblue" stroke="midnightblue" points="112.435,-48.8432 103.767,-54.936 114.342,-55.5783 112.435,-48.8432"/>
</g>
<!-- Node45 -->
<g id="node4" class="node"><title>Node45</title>
<g id="a_node4"><a xlink:href="main_8cpp.html#ae66f6b31b5ad750f1fe042a706a4e3d4" target="_top" xlink:title="main">
<polygon fill="none" stroke="black" points="350,-30 350,-49 388,-49 388,-30 350,-30"/>
<text text-anchor="middle" x="369" y="-37" font-family="Helvetica,sans-Serif" font-size="10.00">main</text>
</a>
</g>
</g>
<!-- Node44&#45;&gt;Node45 -->
<g id="edge3" class="edge"><title>Node44&#45;&gt;Node45</title>
<path fill="none" stroke="midnightblue" d="M321.081,-49.0364C331.716,-46.8749 341.733,-44.8388 349.759,-43.2075"/>
<polygon fill="midnightblue" stroke="midnightblue" points="320.283,-45.6269 311.181,-51.0487 321.677,-52.4867 320.283,-45.6269"/>
</g>
<!-- Node46&#45;&gt;Node45 -->
<g id="edge5" class="edge"><title>Node46&#45;&gt;Node45</title>
<path fill="none" stroke="midnightblue" d="M324.08,-30.9303C333.535,-32.7751 342.384,-34.5019 349.627,-35.9151"/>
<polygon fill="midnightblue" stroke="midnightblue" points="324.536,-27.4532 314.05,-28.9733 323.195,-34.3237 324.536,-27.4532"/>
</g>
</g>
</svg>
