<?xml version="1.0" encoding="UTF-8" standalone="no"?>
<!DOCTYPE svg PUBLIC "-//W3C//DTD SVG 1.1//EN"
 "http://www.w3.org/Graphics/SVG/1.1/DTD/svg11.dtd">
<!-- Generated by graphviz version 2.38.0 (20140413.2041)
 -->
<!-- Title: ProcessadorDeListas::associeAlturasEduracoes Pages: 1 -->
<svg width="316pt" height="78pt"
 viewBox="0.00 0.00 316.00 77.50" xmlns="http://www.w3.org/2000/svg" xmlns:xlink="http://www.w3.org/1999/xlink">
<g id="graph0" class="graph" transform="scale(1 1) rotate(0) translate(4 73.5)">
<title>ProcessadorDeListas::associeAlturasEduracoes</title>
<!-- Node8 -->
<g id="node1" class="node"><title>Node8</title>
<polygon fill="#bfbfbf" stroke="black" points="0,-22.5 0,-52.5 134,-52.5 134,-22.5 0,-22.5"/>
<text text-anchor="start" x="8" y="-40.5" font-family="Helvetica,sans-Serif" font-size="10.00">ProcessadorDeListas</text>
<text text-anchor="middle" x="67" y="-29.5" font-family="Helvetica,sans-Serif" font-size="10.00">::associeAlturasEduracoes</text>
</g>
<!-- Node9 -->
<g id="node2" class="node"><title>Node9</title>
<g id="a_node2"><a xlink:href="class_processador_de_listas.html#a868215a0623d68b702f804615674f07d" target="_top" xlink:title="Calcula o Mínimo Múltiplo Comum (MMC). ">
<polygon fill="none" stroke="black" points="170,-50 170,-69 308,-69 308,-50 170,-50"/>
<text text-anchor="middle" x="239" y="-57" font-family="Helvetica,sans-Serif" font-size="10.00">ProcessadorDeListas::mmc</text>
</a>
</g>
</g>
<!-- Node8&#45;&gt;Node9 -->
<g id="edge1" class="edge"><title>Node8&#45;&gt;Node9</title>
<path fill="none" stroke="midnightblue" d="M134.213,-46.0688C142.589,-47.1527 151.221,-48.2698 159.762,-49.3751"/>
<polygon fill="midnightblue" stroke="midnightblue" points="159.359,-52.852 169.725,-50.6644 160.257,-45.9099 159.359,-52.852"/>
</g>
<!-- Node10 -->
<g id="node3" class="node"><title>Node10</title>
<g id="a_node3"><a xlink:href="class_processador_de_listas.html#a973e3fa18e8101ad289db6d970f9333c" target="_top" xlink:title="Desdobra/Repete uma lista. ">
<polygon fill="none" stroke="black" points="184,-0.5 184,-30.5 294,-30.5 294,-0.5 184,-0.5"/>
<text text-anchor="start" x="192" y="-18.5" font-family="Helvetica,sans-Serif" font-size="10.00">ProcessadorDeListas</text>
<text text-anchor="middle" x="239" y="-7.5" font-family="Helvetica,sans-Serif" font-size="10.00">::desdobreListas</text>
</a>
</g>
</g>
<!-- Node8&#45;&gt;Node10 -->
<g id="edge2" class="edge"><title>Node8&#45;&gt;Node10</title>
<path fill="none" stroke="midnightblue" d="M134.213,-28.9312C147.16,-27.2557 160.72,-25.501 173.607,-23.8333"/>
<polygon fill="midnightblue" stroke="midnightblue" points="174.305,-27.2722 183.773,-22.5176 173.406,-20.3301 174.305,-27.2722"/>
</g>
</g>
</svg>
