<?xml version="1.0" encoding="UTF-8" standalone="no"?>
<!DOCTYPE svg PUBLIC "-//W3C//DTD SVG 1.1//EN"
 "http://www.w3.org/Graphics/SVG/1.1/DTD/svg11.dtd">
<!-- Generated by graphviz version 2.38.0 (20140413.2041)
 -->
<!-- Title: GerenciadorDeMemorias::deleteDaMemoria Pages: 1 -->
<svg width="368pt" height="61pt"
 viewBox="0.00 0.00 368.00 61.00" xmlns="http://www.w3.org/2000/svg" xmlns:xlink="http://www.w3.org/1999/xlink">
<g id="graph0" class="graph" transform="scale(1 1) rotate(0) translate(4 57)">
<title>GerenciadorDeMemorias::deleteDaMemoria</title>
<!-- Node11 -->
<g id="node1" class="node"><title>Node11</title>
<polygon fill="#bfbfbf" stroke="black" points="0,-0.5 0,-30.5 125,-30.5 125,-0.5 0,-0.5"/>
<text text-anchor="start" x="8" y="-18.5" font-family="Helvetica,sans-Serif" font-size="10.00">GerenciadorDeMemorias</text>
<text text-anchor="middle" x="62.5" y="-7.5" font-family="Helvetica,sans-Serif" font-size="10.00">::deleteDaMemoria</text>
</g>
<!-- Node12 -->
<g id="node2" class="node"><title>Node12</title>
<g id="a_node2"><a xlink:href="class_gerenciador_de_memorias.html#a7d3cfcc42ddd63b0f34eb77282e7438f" target="_top" xlink:title="GerenciadorDeMemorias\l::desfazer">
<polygon fill="none" stroke="black" points="161,-22.5 161,-52.5 286,-52.5 286,-22.5 161,-22.5"/>
<text text-anchor="start" x="169" y="-40.5" font-family="Helvetica,sans-Serif" font-size="10.00">GerenciadorDeMemorias</text>
<text text-anchor="middle" x="223.5" y="-29.5" font-family="Helvetica,sans-Serif" font-size="10.00">::desfazer</text>
</a>
</g>
</g>
<!-- Node11&#45;&gt;Node12 -->
<g id="edge1" class="edge"><title>Node11&#45;&gt;Node12</title>
<path fill="none" stroke="midnightblue" d="M135.592,-25.475C143.99,-26.637 152.499,-27.8143 160.74,-28.9546"/>
<polygon fill="midnightblue" stroke="midnightblue" points="135.814,-21.9725 125.429,-24.0688 134.855,-28.9064 135.814,-21.9725"/>
</g>
<!-- Node13 -->
<g id="node3" class="node"><title>Node13</title>
<g id="a_node3"><a xlink:href="main_8cpp.html#ae66f6b31b5ad750f1fe042a706a4e3d4" target="_top" xlink:title="main">
<polygon fill="none" stroke="black" points="322,-6 322,-25 360,-25 360,-6 322,-6"/>
<text text-anchor="middle" x="341" y="-13" font-family="Helvetica,sans-Serif" font-size="10.00">main</text>
</a>
</g>
</g>
<!-- Node11&#45;&gt;Node13 -->
<g id="edge3" class="edge"><title>Node11&#45;&gt;Node13</title>
<path fill="none" stroke="midnightblue" d="M135.58,-13.8492C179.134,-13.1014 235.762,-12.57 286,-13.5 297.819,-13.7188 311.085,-14.2067 321.51,-14.6458"/>
<polygon fill="midnightblue" stroke="midnightblue" points="135.302,-10.3535 125.367,-14.0326 135.428,-17.3524 135.302,-10.3535"/>
</g>
<!-- Node12&#45;&gt;Node13 -->
<g id="edge2" class="edge"><title>Node12&#45;&gt;Node13</title>
<path fill="none" stroke="midnightblue" d="M296.166,-23.8494C305.489,-22.0736 314.298,-20.3957 321.539,-19.0164"/>
<polygon fill="midnightblue" stroke="midnightblue" points="295.476,-20.4177 286.308,-25.7271 296.786,-27.2941 295.476,-20.4177"/>
</g>
</g>
</svg>
