<?xml version="1.0" encoding="UTF-8" standalone="no"?>
<!DOCTYPE svg PUBLIC "-//W3C//DTD SVG 1.1//EN"
 "http://www.w3.org/Graphics/SVG/1.1/DTD/svg11.dtd">
<!-- Generated by graphviz version 2.38.0 (20140413.2041)
 -->
<!-- Title: GerenciadorDeMemorias::verifiqueSeListaExisteNaMemoria Pages: 1 -->
<svg width="574pt" height="99pt"
 viewBox="0.00 0.00 574.00 99.00" xmlns="http://www.w3.org/2000/svg" xmlns:xlink="http://www.w3.org/1999/xlink">
<g id="graph0" class="graph" transform="scale(1 1) rotate(0) translate(4 95)">
<title>GerenciadorDeMemorias::verifiqueSeListaExisteNaMemoria</title>
<!-- Node38 -->
<g id="node1" class="node"><title>Node38</title>
<polygon fill="#bfbfbf" stroke="black" points="0,-0.5 0,-30.5 170,-30.5 170,-0.5 0,-0.5"/>
<text text-anchor="start" x="8" y="-18.5" font-family="Helvetica,sans-Serif" font-size="10.00">GerenciadorDeMemorias</text>
<text text-anchor="middle" x="85" y="-7.5" font-family="Helvetica,sans-Serif" font-size="10.00">::verifiqueSeListaExisteNaMemoria</text>
</g>
<!-- Node39 -->
<g id="node2" class="node"><title>Node39</title>
<g id="a_node2"><a xlink:href="class_gerenciador_de_memorias.html#a45757df4d2c6e9d59bc3088f7cd2c1ce" target="_top" xlink:title="Remove uma lista da memória. ">
<polygon fill="none" stroke="black" points="206,-22.5 206,-52.5 331,-52.5 331,-22.5 206,-22.5"/>
<text text-anchor="start" x="214" y="-40.5" font-family="Helvetica,sans-Serif" font-size="10.00">GerenciadorDeMemorias</text>
<text text-anchor="middle" x="268.5" y="-29.5" font-family="Helvetica,sans-Serif" font-size="10.00">::deleteDaMemoria</text>
</a>
</g>
</g>
<!-- Node38&#45;&gt;Node39 -->
<g id="edge1" class="edge"><title>Node38&#45;&gt;Node39</title>
<path fill="none" stroke="midnightblue" d="M180.298,-26.9301C188.977,-27.9821 197.613,-29.0288 205.887,-30.0318"/>
<polygon fill="midnightblue" stroke="midnightblue" points="180.457,-23.4238 170.109,-25.695 179.615,-30.3729 180.457,-23.4238"/>
</g>
<!-- Node41 -->
<g id="node4" class="node"><title>Node41</title>
<g id="a_node4"><a xlink:href="main_8cpp.html#ae66f6b31b5ad750f1fe042a706a4e3d4" target="_top" xlink:title="main">
<polygon fill="none" stroke="black" points="528,-22 528,-41 566,-41 566,-22 528,-22"/>
<text text-anchor="middle" x="547" y="-29" font-family="Helvetica,sans-Serif" font-size="10.00">main</text>
</a>
</g>
</g>
<!-- Node38&#45;&gt;Node41 -->
<g id="edge5" class="edge"><title>Node38&#45;&gt;Node41</title>
<path fill="none" stroke="midnightblue" d="M180.396,-12.9179C189.052,-12.7482 197.688,-12.6039 206,-12.5 261.551,-11.8057 275.498,-10.0524 331,-12.5 404.186,-15.7275 490.979,-25.1062 527.914,-29.3588"/>
<polygon fill="midnightblue" stroke="midnightblue" points="180.168,-9.42179 170.243,-13.1279 180.313,-16.4203 180.168,-9.42179"/>
</g>
<!-- Node40 -->
<g id="node3" class="node"><title>Node40</title>
<g id="a_node3"><a xlink:href="class_gerenciador_de_memorias.html#a7d3cfcc42ddd63b0f34eb77282e7438f" target="_top" xlink:title="GerenciadorDeMemorias\l::desfazer">
<polygon fill="none" stroke="black" points="367,-60.5 367,-90.5 492,-90.5 492,-60.5 367,-60.5"/>
<text text-anchor="start" x="375" y="-78.5" font-family="Helvetica,sans-Serif" font-size="10.00">GerenciadorDeMemorias</text>
<text text-anchor="middle" x="429.5" y="-67.5" font-family="Helvetica,sans-Serif" font-size="10.00">::desfazer</text>
</a>
</g>
</g>
<!-- Node39&#45;&gt;Node40 -->
<g id="edge2" class="edge"><title>Node39&#45;&gt;Node40</title>
<path fill="none" stroke="midnightblue" d="M341.315,-54.6633C349.803,-56.6919 358.408,-58.7486 366.74,-60.7398"/>
<polygon fill="midnightblue" stroke="midnightblue" points="341.969,-51.221 331.429,-52.3006 340.341,-58.0293 341.969,-51.221"/>
</g>
<!-- Node39&#45;&gt;Node41 -->
<g id="edge4" class="edge"><title>Node39&#45;&gt;Node41</title>
<path fill="none" stroke="midnightblue" d="M341.451,-35.9387C404.191,-34.5772 490.799,-32.6979 527.923,-31.8923"/>
<polygon fill="midnightblue" stroke="midnightblue" points="341.13,-32.4447 331.208,-36.161 341.281,-39.4431 341.13,-32.4447"/>
</g>
<!-- Node40&#45;&gt;Node41 -->
<g id="edge3" class="edge"><title>Node40&#45;&gt;Node41</title>
<path fill="none" stroke="midnightblue" d="M479.306,-56.9073C496.462,-50.3716 514.697,-43.4248 527.756,-38.4499"/>
<polygon fill="midnightblue" stroke="midnightblue" points="478.024,-53.65 469.926,-60.4808 480.516,-60.1915 478.024,-53.65"/>
</g>
</g>
</svg>
