<?xml version="1.0" encoding="UTF-8" standalone="no"?>
<!DOCTYPE svg PUBLIC "-//W3C//DTD SVG 1.1//EN"
 "http://www.w3.org/Graphics/SVG/1.1/DTD/svg11.dtd">
<!-- Generated by graphviz version 2.38.0 (20140413.2041)
 -->
<!-- Title: ProcessadorDeEntradas::convertaAlturasCifradasParaNumeroMIDI Pages: 1 -->
<svg width="315pt" height="78pt"
 viewBox="0.00 0.00 315.00 77.50" xmlns="http://www.w3.org/2000/svg" xmlns:xlink="http://www.w3.org/1999/xlink">
<g id="graph0" class="graph" transform="scale(1 1) rotate(0) translate(4 73.5)">
<title>ProcessadorDeEntradas::convertaAlturasCifradasParaNumeroMIDI</title>
<!-- Node5 -->
<g id="node1" class="node"><title>Node5</title>
<polygon fill="#bfbfbf" stroke="black" points="0,-17 0,-58 148,-58 148,-17 0,-17"/>
<text text-anchor="start" x="8" y="-46" font-family="Helvetica,sans-Serif" font-size="10.00">ProcessadorDeEntradas</text>
<text text-anchor="start" x="8" y="-35" font-family="Helvetica,sans-Serif" font-size="10.00">::convertaAlturasCifradasPara</text>
<text text-anchor="middle" x="74" y="-24" font-family="Helvetica,sans-Serif" font-size="10.00">NumeroMIDI</text>
</g>
<!-- Node6 -->
<g id="node2" class="node"><title>Node6</title>
<g id="a_node2"><a xlink:href="main_8cpp.html#ae66f6b31b5ad750f1fe042a706a4e3d4" target="_top" xlink:title="main">
<polygon fill="none" stroke="black" points="226.5,-50 226.5,-69 264.5,-69 264.5,-50 226.5,-50"/>
<text text-anchor="middle" x="245.5" y="-57" font-family="Helvetica,sans-Serif" font-size="10.00">main</text>
</a>
</g>
</g>
<!-- Node5&#45;&gt;Node6 -->
<g id="edge1" class="edge"><title>Node5&#45;&gt;Node6</title>
<path fill="none" stroke="midnightblue" d="M158.476,-48.3347C183.955,-51.6416 209.587,-54.9685 226.159,-57.1195"/>
<polygon fill="midnightblue" stroke="midnightblue" points="158.727,-44.8379 148.359,-47.0216 157.826,-51.7797 158.727,-44.8379"/>
</g>
<!-- Node7 -->
<g id="node3" class="node"><title>Node7</title>
<g id="a_node3"><a xlink:href="class_processador_de_entradas.html#af70849d24dc0a004f5680661ad530f5e" target="_top" xlink:title="Não mais usado no código atual. ">
<polygon fill="none" stroke="black" points="184,-0.5 184,-30.5 307,-30.5 307,-0.5 184,-0.5"/>
<text text-anchor="start" x="192" y="-18.5" font-family="Helvetica,sans-Serif" font-size="10.00">ProcessadorDeEntradas</text>
<text text-anchor="middle" x="245.5" y="-7.5" font-family="Helvetica,sans-Serif" font-size="10.00">::verifiqueEntrada</text>
</a>
</g>
</g>
<!-- Node5&#45;&gt;Node7 -->
<g id="edge2" class="edge"><title>Node5&#45;&gt;Node7</title>
<path fill="none" stroke="midnightblue" d="M158.375,-26.6785C166.931,-25.5679 175.507,-24.4549 183.752,-23.3847"/>
<polygon fill="midnightblue" stroke="midnightblue" points="157.826,-23.2203 148.359,-27.9784 158.727,-30.1621 157.826,-23.2203"/>
</g>
</g>
</svg>
