<?xml version="1.0" encoding="UTF-8" standalone="no"?>
<!DOCTYPE svg PUBLIC "-//W3C//DTD SVG 1.1//EN"
 "http://www.w3.org/Graphics/SVG/1.1/DTD/svg11.dtd">
<!-- Generated by graphviz version 2.38.0 (20140413.2041)
 -->
<!-- Title: GerenciadorDeMemorias::pegueUltimoIdValido Pages: 1 -->
<svg width="376pt" height="39pt"
 viewBox="0.00 0.00 376.00 39.00" xmlns="http://www.w3.org/2000/svg" xmlns:xlink="http://www.w3.org/1999/xlink">
<g id="graph0" class="graph" transform="scale(1 1) rotate(0) translate(4 35)">
<title>GerenciadorDeMemorias::pegueUltimoIdValido</title>
<!-- Node34 -->
<g id="node1" class="node"><title>Node34</title>
<polygon fill="#bfbfbf" stroke="black" points="0,-0.5 0,-30.5 125,-30.5 125,-0.5 0,-0.5"/>
<text text-anchor="start" x="8" y="-18.5" font-family="Helvetica,sans-Serif" font-size="10.00">GerenciadorDeMemorias</text>
<text text-anchor="middle" x="62.5" y="-7.5" font-family="Helvetica,sans-Serif" font-size="10.00">::pegueUltimoIdValido</text>
</g>
<!-- Node35 -->
<g id="node2" class="node"><title>Node35</title>
<g id="a_node2"><a xlink:href="main_8cpp.html#a77f97c42b75ec4894aafb02c4ddb7ec5" target="_top" xlink:title="vericaSeIDDaListaEValido">
<polygon fill="none" stroke="black" points="161,-6 161,-25 294,-25 294,-6 161,-6"/>
<text text-anchor="middle" x="227.5" y="-13" font-family="Helvetica,sans-Serif" font-size="10.00">vericaSeIDDaListaEValido</text>
</a>
</g>
</g>
<!-- Node34&#45;&gt;Node35 -->
<g id="edge1" class="edge"><title>Node34&#45;&gt;Node35</title>
<path fill="none" stroke="midnightblue" d="M135.127,-15.5C143.727,-15.5 152.476,-15.5 160.983,-15.5"/>
<polygon fill="midnightblue" stroke="midnightblue" points="135.123,-12.0001 125.123,-15.5 135.123,-19.0001 135.123,-12.0001"/>
</g>
<!-- Node36 -->
<g id="node3" class="node"><title>Node36</title>
<g id="a_node3"><a xlink:href="main_8cpp.html#ae66f6b31b5ad750f1fe042a706a4e3d4" target="_top" xlink:title="main">
<polygon fill="none" stroke="black" points="330,-6 330,-25 368,-25 368,-6 330,-6"/>
<text text-anchor="middle" x="349" y="-13" font-family="Helvetica,sans-Serif" font-size="10.00">main</text>
</a>
</g>
</g>
<!-- Node35&#45;&gt;Node36 -->
<g id="edge2" class="edge"><title>Node35&#45;&gt;Node36</title>
<path fill="none" stroke="midnightblue" d="M304.438,-15.5C313.719,-15.5 322.436,-15.5 329.598,-15.5"/>
<polygon fill="midnightblue" stroke="midnightblue" points="304.193,-12.0001 294.193,-15.5 304.193,-19.0001 304.193,-12.0001"/>
</g>
</g>
</svg>
