<?xml version="1.0" encoding="UTF-8" standalone="no"?>
<!DOCTYPE svg PUBLIC "-//W3C//DTD SVG 1.1//EN"
 "http://www.w3.org/Graphics/SVG/1.1/DTD/svg11.dtd">
<!-- Generated by graphviz version 2.38.0 (20140413.2041)
 -->
<!-- Title: ProcessadorDeListas::desdobreListas Pages: 1 -->
<svg width="368pt" height="88pt"
 viewBox="0.00 0.00 368.00 88.00" xmlns="http://www.w3.org/2000/svg" xmlns:xlink="http://www.w3.org/1999/xlink">
<g id="graph0" class="graph" transform="scale(1 1) rotate(0) translate(4 84)">
<title>ProcessadorDeListas::desdobreListas</title>
<!-- Node27 -->
<g id="node1" class="node"><title>Node27</title>
<polygon fill="#bfbfbf" stroke="black" points="0,-24.5 0,-54.5 110,-54.5 110,-24.5 0,-24.5"/>
<text text-anchor="start" x="8" y="-42.5" font-family="Helvetica,sans-Serif" font-size="10.00">ProcessadorDeListas</text>
<text text-anchor="middle" x="55" y="-31.5" font-family="Helvetica,sans-Serif" font-size="10.00">::desdobreListas</text>
</g>
<!-- Node28 -->
<g id="node2" class="node"><title>Node28</title>
<g id="a_node2"><a xlink:href="class_processador_de_listas.html#a55820e47d04ab38190bdaf968a466398" target="_top" xlink:title="Faz associação um a um entre alturas e durações. ">
<polygon fill="none" stroke="black" points="149,-49.5 149,-79.5 283,-79.5 283,-49.5 149,-49.5"/>
<text text-anchor="start" x="157" y="-67.5" font-family="Helvetica,sans-Serif" font-size="10.00">ProcessadorDeListas</text>
<text text-anchor="middle" x="216" y="-56.5" font-family="Helvetica,sans-Serif" font-size="10.00">::associeAlturasEduracoes</text>
</a>
</g>
</g>
<!-- Node27&#45;&gt;Node28 -->
<g id="edge1" class="edge"><title>Node27&#45;&gt;Node28</title>
<path fill="none" stroke="midnightblue" d="M120.335,-49.6155C129.737,-51.0939 139.433,-52.6184 148.87,-54.1022"/>
<polygon fill="midnightblue" stroke="midnightblue" points="120.696,-46.1295 110.274,-48.0337 119.609,-53.0445 120.696,-46.1295"/>
</g>
<!-- Node30 -->
<g id="node4" class="node"><title>Node30</title>
<g id="a_node4"><a xlink:href="class_processador_de_listas.html#a39609c84bee80b081bbfe426c7766c73" target="_top" xlink:title="Sincroniza o tamanho de duas listas numéricas. ">
<polygon fill="none" stroke="black" points="146,-0.5 146,-30.5 286,-30.5 286,-0.5 146,-0.5"/>
<text text-anchor="start" x="154" y="-18.5" font-family="Helvetica,sans-Serif" font-size="10.00">ProcessadorDeListas</text>
<text text-anchor="middle" x="216" y="-7.5" font-family="Helvetica,sans-Serif" font-size="10.00">::sincronizeListasNumericas</text>
</a>
</g>
</g>
<!-- Node27&#45;&gt;Node30 -->
<g id="edge3" class="edge"><title>Node27&#45;&gt;Node30</title>
<path fill="none" stroke="midnightblue" d="M120.35,-29.7868C128.727,-28.5224 137.337,-27.2228 145.789,-25.947"/>
<polygon fill="midnightblue" stroke="midnightblue" points="119.64,-26.3543 110.274,-31.3077 120.684,-33.2759 119.64,-26.3543"/>
</g>
<!-- Node29 -->
<g id="node3" class="node"><title>Node29</title>
<g id="a_node3"><a xlink:href="main_8cpp.html#ae66f6b31b5ad750f1fe042a706a4e3d4" target="_top" xlink:title="main">
<polygon fill="none" stroke="black" points="322,-30 322,-49 360,-49 360,-30 322,-30"/>
<text text-anchor="middle" x="341" y="-37" font-family="Helvetica,sans-Serif" font-size="10.00">main</text>
</a>
</g>
</g>
<!-- Node28&#45;&gt;Node29 -->
<g id="edge2" class="edge"><title>Node28&#45;&gt;Node29</title>
<path fill="none" stroke="midnightblue" d="M293.081,-49.0364C303.716,-46.8749 313.733,-44.8388 321.759,-43.2075"/>
<polygon fill="midnightblue" stroke="midnightblue" points="292.283,-45.6269 283.181,-51.0487 293.677,-52.4867 292.283,-45.6269"/>
</g>
<!-- Node30&#45;&gt;Node29 -->
<g id="edge4" class="edge"><title>Node30&#45;&gt;Node29</title>
<path fill="none" stroke="midnightblue" d="M296.08,-30.9303C305.535,-32.7751 314.384,-34.5019 321.627,-35.9151"/>
<polygon fill="midnightblue" stroke="midnightblue" points="296.536,-27.4532 286.05,-28.9733 295.195,-34.3237 296.536,-27.4532"/>
</g>
</g>
</svg>
