<?xml version="1.0" encoding="UTF-8" standalone="no"?>
<!DOCTYPE svg PUBLIC "-//W3C//DTD SVG 1.1//EN"
 "http://www.w3.org/Graphics/SVG/1.1/DTD/svg11.dtd">
<!-- Generated by graphviz version 2.38.0 (20140413.2041)
 -->
<!-- Title: C&#45;Syncker/src/main.cpp Pages: 1 -->
<!--zoomable 140 -->
<svg id="main" version="1.1" xmlns="http://www.w3.org/2000/svg" xmlns:xlink="http://www.w3.org/1999/xlink" xml:space="preserve" onload="init(evt)">
<style type="text/css"><![CDATA[
.edge:hover path { stroke: red; }
.edge:hover polygon { stroke: red; fill: red; }
]]></style>
<script type="text/javascript"><![CDATA[
var edges = document.getElementsByTagName('g');
if (edges && edges.length) {
  for (var i=0;i<edges.length;i++) {
    if (edges[i].id.substr(0,4)=='edge') {
      edges[i].setAttribute('class','edge');
    }
  }
}
]]></script>
        <defs>
                <circle id="rim" cx="0" cy="0" r="7"/>
                <circle id="rim2" cx="0" cy="0" r="3.5"/>
                <g id="zoomPlus">
                        <use xlink:href="#rim" fill="#404040">
                                <set attributeName="fill" to="#808080" begin="zoomplus.mouseover" end="zoomplus.mouseout"/>
                        </use>
                        <path d="M-4,0h8M0,-4v8" fill="none" stroke="white" stroke-width="1.5" pointer-events="none"/>
                </g>
                <g id="zoomMin">
                        <use xlink:href="#rim" fill="#404040">
                                <set attributeName="fill" to="#808080" begin="zoomminus.mouseover" end="zoomminus.mouseout"/>
                        </use>
                        <path d="M-4,0h8" fill="none" stroke="white" stroke-width="1.5" pointer-events="none"/>
                </g>
                <g id="dirArrow">
                        <path fill="none" stroke="white" stroke-width="1.5" d="M0,-3.0v7 M-2.5,-0.5L0,-3.0L2.5,-0.5"/>
                </g>
               <g id="resetDef">
                       <use xlink:href="#rim2" fill="#404040">
                               <set attributeName="fill" to="#808080" begin="reset.mouseover" end="reset.mouseout"/>
                       </use>
               </g>
        </defs>

<script type="text/javascript">
var viewWidth = 1083;
var viewHeight = 140;
var sectionId = 'dynsection-0';
</script>
<script xlink:href="svgpan.js"/>
<svg id="graph" class="graph">
<g id="viewport">
<title>C&#45;Syncker/src/main.cpp</title>
<!-- Node0 -->
<g id="node1" class="node"><title>Node0</title>
<polygon fill="#bfbfbf" stroke="black" points="727,-112.5 727,-131.5 849,-131.5 849,-112.5 727,-112.5"/>
<text text-anchor="middle" x="788" y="-119.5" font-family="Helvetica,sans-Serif" font-size="10.00">C&#45;Syncker/src/main.cpp</text>
</g>
<!-- Node1 -->
<g id="node2" class="node"><title>Node1</title>
<polygon fill="none" stroke="#bfbfbf" points="440,-0.5 440,-19.5 494,-19.5 494,-0.5 440,-0.5"/>
<text text-anchor="middle" x="467" y="-7.5" font-family="Helvetica,sans-Serif" font-size="10.00">iostream</text>
</g>
<!-- Node0&#45;&gt;Node1 -->
<g id="edge1" class="edge"><title>Node0&#45;&gt;Node1</title>
<path fill="none" stroke="midnightblue" d="M726.929,-119.492C649.246,-116.32 520.958,-106.485 486,-76 472.867,-64.5468 468.572,-44.5668 467.284,-29.773"/>
<polygon fill="midnightblue" stroke="midnightblue" points="470.775,-29.514 466.788,-19.6981 463.784,-29.8581 470.775,-29.514"/>
</g>
<!-- Node2 -->
<g id="node3" class="node"><title>Node2</title>
<g id="a_node3"><a xlink:href="_processador_de_listas_8h.html" target="_top" xlink:title="ProcessadorDeListas.h">
<polygon fill="none" stroke="black" points="267.5,-56.5 267.5,-75.5 386.5,-75.5 386.5,-56.5 267.5,-56.5"/>
<text text-anchor="middle" x="327" y="-63.5" font-family="Helvetica,sans-Serif" font-size="10.00">ProcessadorDeListas.h</text>
</a>
</g>
</g>
<!-- Node0&#45;&gt;Node2 -->
<g id="edge2" class="edge"><title>Node0&#45;&gt;Node2</title>
<path fill="none" stroke="midnightblue" d="M726.783,-113.829C641.293,-103.815 486.562,-85.6906 396.731,-75.168"/>
<polygon fill="midnightblue" stroke="midnightblue" points="396.981,-71.6734 386.641,-73.9862 396.166,-78.6259 396.981,-71.6734"/>
</g>
<!-- Node4 -->
<g id="node5" class="node"><title>Node4</title>
<polygon fill="none" stroke="#bfbfbf" points="759.5,-0.5 759.5,-19.5 788.5,-19.5 788.5,-0.5 759.5,-0.5"/>
<text text-anchor="middle" x="774" y="-7.5" font-family="Helvetica,sans-Serif" font-size="10.00">list</text>
</g>
<!-- Node0&#45;&gt;Node4 -->
<g id="edge35" class="edge"><title>Node0&#45;&gt;Node4</title>
<path fill="none" stroke="midnightblue" d="M812.9,-112.37C840.236,-101.428 878.344,-80.9515 863,-56 859.237,-49.8804 822.945,-32.7816 797.884,-21.5117"/>
<polygon fill="midnightblue" stroke="midnightblue" points="799.159,-18.2479 788.6,-17.3711 796.308,-24.6409 799.159,-18.2479"/>
</g>
<!-- Node6 -->
<g id="node7" class="node"><title>Node6</title>
<polygon fill="none" stroke="#bfbfbf" points="380.5,-0.5 380.5,-19.5 421.5,-19.5 421.5,-0.5 380.5,-0.5"/>
<text text-anchor="middle" x="401" y="-7.5" font-family="Helvetica,sans-Serif" font-size="10.00">string</text>
</g>
<!-- Node0&#45;&gt;Node6 -->
<g id="edge36" class="edge"><title>Node0&#45;&gt;Node6</title>
<path fill="none" stroke="midnightblue" d="M726.863,-116.764C647.565,-110.517 514.161,-97.2269 470,-76 446.937,-64.9144 426.436,-43.317 413.893,-28.0661"/>
<polygon fill="midnightblue" stroke="midnightblue" points="416.418,-25.6169 407.467,-19.9474 410.929,-29.9609 416.418,-25.6169"/>
</g>
<!-- Node11 -->
<g id="node12" class="node"><title>Node11</title>
<g id="a_node12"><a xlink:href="_escriba_8h.html" target="_top" xlink:title="Escriba.h">
<polygon fill="none" stroke="black" points="645,-56.5 645,-75.5 703,-75.5 703,-56.5 645,-56.5"/>
<text text-anchor="middle" x="674" y="-63.5" font-family="Helvetica,sans-Serif" font-size="10.00">Escriba.h</text>
</a>
</g>
</g>
<!-- Node0&#45;&gt;Node11 -->
<g id="edge12" class="edge"><title>Node0&#45;&gt;Node11</title>
<path fill="none" stroke="midnightblue" d="M769.936,-112.444C751.425,-103.675 722.419,-89.9355 701.145,-79.8579"/>
<polygon fill="midnightblue" stroke="midnightblue" points="702.515,-76.6343 691.979,-75.5164 699.518,-82.9604 702.515,-76.6343"/>
</g>
<!-- Node14 -->
<g id="node15" class="node"><title>Node14</title>
<polygon fill="none" stroke="#bfbfbf" points="937,-0.5 937,-19.5 987,-19.5 987,-0.5 937,-0.5"/>
<text text-anchor="middle" x="962" y="-7.5" font-family="Helvetica,sans-Serif" font-size="10.00">fstream</text>
</g>
<!-- Node0&#45;&gt;Node14 -->
<g id="edge39" class="edge"><title>Node0&#45;&gt;Node14</title>
<path fill="none" stroke="midnightblue" d="M816.236,-112.359C838.676,-104.751 870.289,-92.338 895,-76 915.794,-62.2522 935.787,-41.5598 948.436,-27.2307"/>
<polygon fill="midnightblue" stroke="midnightblue" points="951.109,-29.4904 954.985,-19.6299 945.806,-24.9212 951.109,-29.4904"/>
</g>
<!-- Node15 -->
<g id="node16" class="node"><title>Node15</title>
<polygon fill="none" stroke="#bfbfbf" points="807,-0.5 807,-19.5 859,-19.5 859,-0.5 807,-0.5"/>
<text text-anchor="middle" x="833" y="-7.5" font-family="Helvetica,sans-Serif" font-size="10.00">sstream</text>
</g>
<!-- Node0&#45;&gt;Node15 -->
<g id="edge38" class="edge"><title>Node0&#45;&gt;Node15</title>
<path fill="none" stroke="midnightblue" d="M825.968,-112.411C845.408,-105.883 867.376,-94.7151 879,-76 890.056,-58.1987 871.893,-38.6898 855.235,-25.7362"/>
<polygon fill="midnightblue" stroke="midnightblue" points="856.967,-22.6673 846.825,-19.6037 852.843,-28.3234 856.967,-22.6673"/>
</g>
<!-- Node17 -->
<g id="node18" class="node"><title>Node17</title>
<g id="a_node18"><a xlink:href="_processador_de_entradas_8h.html" target="_top" xlink:title="ProcessadorDeEntradas.h">
<polygon fill="none" stroke="black" points="495.5,-56.5 495.5,-75.5 626.5,-75.5 626.5,-56.5 495.5,-56.5"/>
<text text-anchor="middle" x="561" y="-63.5" font-family="Helvetica,sans-Serif" font-size="10.00">ProcessadorDeEntradas.h</text>
</a>
</g>
</g>
<!-- Node0&#45;&gt;Node17 -->
<g id="edge21" class="edge"><title>Node0&#45;&gt;Node17</title>
<path fill="none" stroke="midnightblue" d="M752.031,-112.444C712.681,-103.083 649.513,-88.0561 606.686,-77.868"/>
<polygon fill="midnightblue" stroke="midnightblue" points="607.339,-74.4258 596.801,-75.5164 605.719,-81.2358 607.339,-74.4258"/>
</g>
<!-- Node18 -->
<g id="node19" class="node"><title>Node18</title>
<g id="a_node19"><a xlink:href="_gerenciador_de_memorias_8h.html" target="_top" xlink:title="GerenciadorDeMemorias.h">
<polygon fill="none" stroke="black" points="721.5,-56.5 721.5,-75.5 854.5,-75.5 854.5,-56.5 721.5,-56.5"/>
<text text-anchor="middle" x="788" y="-63.5" font-family="Helvetica,sans-Serif" font-size="10.00">GerenciadorDeMemorias.h</text>
</a>
</g>
</g>
<!-- Node0&#45;&gt;Node18 -->
<g id="edge29" class="edge"><title>Node0&#45;&gt;Node18</title>
<path fill="none" stroke="midnightblue" d="M788,-112.083C788,-105.006 788,-94.8611 788,-85.9865"/>
<polygon fill="midnightblue" stroke="midnightblue" points="791.5,-85.751 788,-75.7511 784.5,-85.7511 791.5,-85.751"/>
</g>
<!-- Node19 -->
<g id="node20" class="node"><title>Node19</title>
<polygon fill="none" stroke="#bfbfbf" points="1005.5,-0.5 1005.5,-19.5 1046.5,-19.5 1046.5,-0.5 1005.5,-0.5"/>
<text text-anchor="middle" x="1026" y="-7.5" font-family="Helvetica,sans-Serif" font-size="10.00">stack</text>
</g>
<!-- Node0&#45;&gt;Node19 -->
<g id="edge40" class="edge"><title>Node0&#45;&gt;Node19</title>
<path fill="none" stroke="midnightblue" d="M820.226,-112.487C847.894,-104.639 888.494,-91.8271 922,-76 952.858,-61.424 985.843,-39.6201 1006.2,-25.3528"/>
<polygon fill="midnightblue" stroke="midnightblue" points="1008.23,-28.2044 1014.35,-19.5618 1004.17,-22.4963 1008.23,-28.2044"/>
</g>
<!-- Node20 -->
<g id="node21" class="node"><title>Node20</title>
<polygon fill="none" stroke="#bfbfbf" points="1025.5,-56.5 1025.5,-75.5 1074.5,-75.5 1074.5,-56.5 1025.5,-56.5"/>
<text text-anchor="middle" x="1050" y="-63.5" font-family="Helvetica,sans-Serif" font-size="10.00">ctype.h</text>
</g>
<!-- Node0&#45;&gt;Node20 -->
<g id="edge37" class="edge"><title>Node0&#45;&gt;Node20</title>
<path fill="none" stroke="midnightblue" d="M832.08,-112.479C877.118,-103.684 949.041,-89.3978 1011,-76 1012.44,-75.6879 1013.92,-75.3656 1015.4,-75.037"/>
<polygon fill="midnightblue" stroke="midnightblue" points="1016.28,-78.4274 1025.27,-72.8165 1014.74,-71.5983 1016.28,-78.4274"/>
</g>
<!-- Node2&#45;&gt;Node1 -->
<g id="edge3" class="edge"><title>Node2&#45;&gt;Node1</title>
<path fill="none" stroke="midnightblue" d="M349.183,-56.4435C372.428,-47.4776 409.149,-33.314 435.415,-23.1827"/>
<polygon fill="midnightblue" stroke="midnightblue" points="436.85,-26.3807 444.92,-19.5164 434.331,-19.8497 436.85,-26.3807"/>
</g>
<!-- Node3 -->
<g id="node4" class="node"><title>Node3</title>
<polygon fill="none" stroke="#bfbfbf" points="512.5,-0.5 512.5,-19.5 547.5,-19.5 547.5,-0.5 512.5,-0.5"/>
<text text-anchor="middle" x="530" y="-7.5" font-family="Helvetica,sans-Serif" font-size="10.00">map</text>
</g>
<!-- Node2&#45;&gt;Node3 -->
<g id="edge4" class="edge"><title>Node2&#45;&gt;Node3</title>
<path fill="none" stroke="midnightblue" d="M363.612,-56.4465C397.332,-48.3897 448.933,-35.6113 502.644,-19.9415"/>
<polygon fill="midnightblue" stroke="midnightblue" points="503.734,-23.2694 512.338,-17.0881 501.757,-16.5542 503.734,-23.2694"/>
</g>
<!-- Node2&#45;&gt;Node4 -->
<g id="edge5" class="edge"><title>Node2&#45;&gt;Node4</title>
<path fill="none" stroke="midnightblue" d="M386.78,-60.5145C482.514,-53.0295 666.992,-37.2929 749.661,-19.3742"/>
<polygon fill="midnightblue" stroke="midnightblue" points="750.498,-22.7731 759.46,-17.1212 748.93,-15.9511 750.498,-22.7731"/>
</g>
<!-- Node5 -->
<g id="node6" class="node"><title>Node5</title>
<polygon fill="none" stroke="#bfbfbf" points="0,-0.5 0,-19.5 44,-19.5 44,-0.5 0,-0.5"/>
<text text-anchor="middle" x="22" y="-7.5" font-family="Helvetica,sans-Serif" font-size="10.00">vector</text>
</g>
<!-- Node2&#45;&gt;Node5 -->
<g id="edge6" class="edge"><title>Node2&#45;&gt;Node5</title>
<path fill="none" stroke="midnightblue" d="M267.274,-57.2932C213.786,-49.9162 133.065,-37.6151 54.354,-20.0884"/>
<polygon fill="midnightblue" stroke="midnightblue" points="54.7933,-16.5996 44.2679,-17.8109 53.2514,-23.4276 54.7933,-16.5996"/>
</g>
<!-- Node2&#45;&gt;Node6 -->
<g id="edge7" class="edge"><title>Node2&#45;&gt;Node6</title>
<path fill="none" stroke="midnightblue" d="M338.889,-56.324C350.15,-48.1066 367.287,-35.6017 380.709,-25.8069"/>
<polygon fill="midnightblue" stroke="midnightblue" points="382.88,-28.5559 388.894,-19.8339 378.753,-22.9014 382.88,-28.5559"/>
</g>
<!-- Node7 -->
<g id="node8" class="node"><title>Node7</title>
<polygon fill="none" stroke="#bfbfbf" points="62.5,-0.5 62.5,-19.5 113.5,-19.5 113.5,-0.5 62.5,-0.5"/>
<text text-anchor="middle" x="88" y="-7.5" font-family="Helvetica,sans-Serif" font-size="10.00">numeric</text>
</g>
<!-- Node2&#45;&gt;Node7 -->
<g id="edge8" class="edge"><title>Node2&#45;&gt;Node7</title>
<path fill="none" stroke="midnightblue" d="M286.265,-56.4477C247.114,-48.1314 186.04,-34.9068 123.616,-20.0814"/>
<polygon fill="midnightblue" stroke="midnightblue" points="124.128,-16.6054 113.589,-17.6888 122.503,-23.4143 124.128,-16.6054"/>
</g>
<!-- Node8 -->
<g id="node9" class="node"><title>Node8</title>
<polygon fill="none" stroke="#bfbfbf" points="132,-0.5 132,-19.5 188,-19.5 188,-0.5 132,-0.5"/>
<text text-anchor="middle" x="160" y="-7.5" font-family="Helvetica,sans-Serif" font-size="10.00">algorithm</text>
</g>
<!-- Node2&#45;&gt;Node8 -->
<g id="edge9" class="edge"><title>Node2&#45;&gt;Node8</title>
<path fill="none" stroke="midnightblue" d="M300.538,-56.4435C272.322,-47.3196 227.46,-32.8133 196.032,-22.6509"/>
<polygon fill="midnightblue" stroke="midnightblue" points="196.93,-19.263 186.338,-19.5164 194.776,-25.9234 196.93,-19.263"/>
</g>
<!-- Node9 -->
<g id="node10" class="node"><title>Node9</title>
<polygon fill="none" stroke="#bfbfbf" points="206.5,-0.5 206.5,-19.5 265.5,-19.5 265.5,-0.5 206.5,-0.5"/>
<text text-anchor="middle" x="236" y="-7.5" font-family="Helvetica,sans-Serif" font-size="10.00">functional</text>
</g>
<!-- Node2&#45;&gt;Node9 -->
<g id="edge10" class="edge"><title>Node2&#45;&gt;Node9</title>
<path fill="none" stroke="midnightblue" d="M312.379,-56.324C298.051,-47.8215 275.987,-34.7288 259.251,-24.7975"/>
<polygon fill="midnightblue" stroke="midnightblue" points="260.97,-21.7478 250.584,-19.6545 257.398,-27.7677 260.97,-21.7478"/>
</g>
<!-- Node10 -->
<g id="node11" class="node"><title>Node10</title>
<polygon fill="none" stroke="#bfbfbf" points="284,-0.5 284,-19.5 362,-19.5 362,-0.5 284,-0.5"/>
<text text-anchor="middle" x="323" y="-7.5" font-family="Helvetica,sans-Serif" font-size="10.00">unordered_set</text>
</g>
<!-- Node2&#45;&gt;Node10 -->
<g id="edge11" class="edge"><title>Node2&#45;&gt;Node10</title>
<path fill="none" stroke="midnightblue" d="M326.339,-56.083C325.815,-49.0059 325.064,-38.8611 324.406,-29.9865"/>
<polygon fill="midnightblue" stroke="midnightblue" points="327.877,-29.4652 323.648,-19.7511 320.897,-29.9823 327.877,-29.4652"/>
</g>
<!-- Node11&#45;&gt;Node1 -->
<g id="edge13" class="edge"><title>Node11&#45;&gt;Node1</title>
<path fill="none" stroke="midnightblue" d="M644.781,-57.3776C607.795,-47.7292 544.062,-31.1031 503.796,-20.5989"/>
<polygon fill="midnightblue" stroke="midnightblue" points="504.655,-17.2059 494.095,-18.0682 502.888,-23.9792 504.655,-17.2059"/>
</g>
<!-- Node11&#45;&gt;Node4 -->
<g id="edge14" class="edge"><title>Node11&#45;&gt;Node4</title>
<path fill="none" stroke="midnightblue" d="M690.067,-56.324C706.334,-47.5397 731.674,-33.8558 750.258,-23.8206"/>
<polygon fill="midnightblue" stroke="midnightblue" points="752.141,-26.7819 759.277,-18.9507 748.814,-20.6225 752.141,-26.7819"/>
</g>
<!-- Node11&#45;&gt;Node6 -->
<g id="edge20" class="edge"><title>Node11&#45;&gt;Node6</title>
<path fill="none" stroke="midnightblue" d="M644.648,-58.054C641.398,-57.3362 638.132,-56.6373 635,-56 547.865,-38.2701 522.31,-41.0421 431.467,-19.8573"/>
<polygon fill="midnightblue" stroke="midnightblue" points="432.108,-16.4126 421.571,-17.5162 430.497,-23.2245 432.108,-16.4126"/>
</g>
<!-- Node12 -->
<g id="node13" class="node"><title>Node12</title>
<polygon fill="none" stroke="#bfbfbf" points="565.5,-0.5 565.5,-19.5 648.5,-19.5 648.5,-0.5 565.5,-0.5"/>
<text text-anchor="middle" x="607" y="-7.5" font-family="Helvetica,sans-Serif" font-size="10.00">unordered_map</text>
</g>
<!-- Node11&#45;&gt;Node12 -->
<g id="edge15" class="edge"><title>Node11&#45;&gt;Node12</title>
<path fill="none" stroke="midnightblue" d="M663.235,-56.324C653.234,-48.2631 638.113,-36.0765 626.07,-26.3695"/>
<polygon fill="midnightblue" stroke="midnightblue" points="627.943,-23.3841 617.961,-19.8339 623.55,-28.8343 627.943,-23.3841"/>
</g>
<!-- Node13 -->
<g id="node14" class="node"><title>Node13</title>
<polygon fill="none" stroke="#bfbfbf" points="667,-0.5 667,-19.5 741,-19.5 741,-0.5 667,-0.5"/>
<text text-anchor="middle" x="704" y="-7.5" font-family="Helvetica,sans-Serif" font-size="10.00">bits/stdc++.h</text>
</g>
<!-- Node11&#45;&gt;Node13 -->
<g id="edge16" class="edge"><title>Node11&#45;&gt;Node13</title>
<path fill="none" stroke="midnightblue" d="M678.954,-56.083C683.104,-48.6127 689.153,-37.7244 694.267,-28.5199"/>
<polygon fill="midnightblue" stroke="midnightblue" points="697.341,-30.1924 699.138,-19.7511 691.222,-26.7929 697.341,-30.1924"/>
</g>
<!-- Node11&#45;&gt;Node14 -->
<g id="edge17" class="edge"><title>Node11&#45;&gt;Node14</title>
<path fill="none" stroke="midnightblue" d="M703.002,-57.9186C706.034,-57.2419 709.076,-56.5893 712,-56 804.332,-37.3937 831.141,-40.26 927.001,-20.0461"/>
<polygon fill="midnightblue" stroke="midnightblue" points="927.765,-23.4619 936.812,-17.9483 926.302,-16.6166 927.765,-23.4619"/>
</g>
<!-- Node11&#45;&gt;Node15 -->
<g id="edge18" class="edge"><title>Node11&#45;&gt;Node15</title>
<path fill="none" stroke="midnightblue" d="M699.194,-56.4435C725.943,-47.3591 768.403,-32.9388 798.305,-22.7831"/>
<polygon fill="midnightblue" stroke="midnightblue" points="799.581,-26.0464 807.924,-19.5164 797.329,-19.4182 799.581,-26.0464"/>
</g>
<!-- Node16 -->
<g id="node17" class="node"><title>Node16</title>
<polygon fill="none" stroke="#bfbfbf" points="877.5,-0.5 877.5,-19.5 918.5,-19.5 918.5,-0.5 877.5,-0.5"/>
<text text-anchor="middle" x="898" y="-7.5" font-family="Helvetica,sans-Serif" font-size="10.00">regex</text>
</g>
<!-- Node11&#45;&gt;Node16 -->
<g id="edge19" class="edge"><title>Node11&#45;&gt;Node16</title>
<path fill="none" stroke="midnightblue" d="M703.042,-58.1035C706.066,-57.3907 709.095,-56.6791 712,-56 778.31,-40.4965 797.584,-38.3945 867.641,-19.9579"/>
<polygon fill="midnightblue" stroke="midnightblue" points="868.623,-23.3184 877.393,-17.3731 866.83,-16.552 868.623,-23.3184"/>
</g>
<!-- Node17&#45;&gt;Node1 -->
<g id="edge22" class="edge"><title>Node17&#45;&gt;Node1</title>
<path fill="none" stroke="midnightblue" d="M545.897,-56.324C531.097,-47.8215 508.306,-34.7288 491.018,-24.7975"/>
<polygon fill="midnightblue" stroke="midnightblue" points="492.48,-21.6009 482.065,-19.6545 488.993,-27.6707 492.48,-21.6009"/>
</g>
<!-- Node17&#45;&gt;Node3 -->
<g id="edge25" class="edge"><title>Node17&#45;&gt;Node3</title>
<path fill="none" stroke="midnightblue" d="M555.881,-56.083C551.592,-48.6127 545.342,-37.7244 540.058,-28.5199"/>
<polygon fill="midnightblue" stroke="midnightblue" points="543.038,-26.6811 535.024,-19.7511 536.967,-30.1662 543.038,-26.6811"/>
</g>
<!-- Node17&#45;&gt;Node4 -->
<g id="edge23" class="edge"><title>Node17&#45;&gt;Node4</title>
<path fill="none" stroke="midnightblue" d="M603.442,-56.4834C639.906,-48.8125 694.001,-36.5936 749.697,-19.7794"/>
<polygon fill="midnightblue" stroke="midnightblue" points="750.84,-23.09 759.377,-16.815 748.79,-16.3968 750.84,-23.09"/>
</g>
<!-- Node17&#45;&gt;Node6 -->
<g id="edge24" class="edge"><title>Node17&#45;&gt;Node6</title>
<path fill="none" stroke="midnightblue" d="M535.648,-56.4435C507.306,-46.8782 461.435,-31.3969 431.244,-21.2075"/>
<polygon fill="midnightblue" stroke="midnightblue" points="432.249,-17.8526 421.655,-17.971 430.01,-24.4851 432.249,-17.8526"/>
</g>
<!-- Node17&#45;&gt;Node12 -->
<g id="edge26" class="edge"><title>Node17&#45;&gt;Node12</title>
<path fill="none" stroke="midnightblue" d="M568.596,-56.083C575.227,-48.2982 585.021,-36.8015 593.058,-27.3665"/>
<polygon fill="midnightblue" stroke="midnightblue" points="595.725,-29.6332 599.545,-19.7511 590.396,-25.0939 595.725,-29.6332"/>
</g>
<!-- Node17&#45;&gt;Node13 -->
<g id="edge28" class="edge"><title>Node17&#45;&gt;Node13</title>
<path fill="none" stroke="midnightblue" d="M583.659,-56.4435C607.402,-47.4776 644.909,-33.314 671.738,-23.1827"/>
<polygon fill="midnightblue" stroke="midnightblue" points="673.329,-26.3235 681.447,-19.5164 670.856,-19.7749 673.329,-26.3235"/>
</g>
<!-- Node17&#45;&gt;Node15 -->
<g id="edge27" class="edge"><title>Node17&#45;&gt;Node15</title>
<path fill="none" stroke="midnightblue" d="M609.98,-56.4947C655.677,-48.3719 725.972,-35.4003 796.712,-19.9544"/>
<polygon fill="midnightblue" stroke="midnightblue" points="797.68,-23.3254 806.694,-17.7588 796.176,-16.4888 797.68,-23.3254"/>
</g>
<!-- Node18&#45;&gt;Node1 -->
<g id="edge32" class="edge"><title>Node18&#45;&gt;Node1</title>
<path fill="none" stroke="midnightblue" d="M723.473,-56.4707C667.782,-48.7312 584.999,-36.3267 503.943,-20.0443"/>
<polygon fill="midnightblue" stroke="midnightblue" points="504.565,-16.5993 494.068,-18.0395 503.172,-23.4593 504.565,-16.5993"/>
</g>
<!-- Node18&#45;&gt;Node3 -->
<g id="edge30" class="edge"><title>Node18&#45;&gt;Node3</title>
<path fill="none" stroke="midnightblue" d="M732.182,-56.4552C687.181,-49.0507 622.164,-37.1941 557.474,-20.1131"/>
<polygon fill="midnightblue" stroke="midnightblue" points="558.083,-16.6526 547.517,-17.4411 556.269,-23.4134 558.083,-16.6526"/>
</g>
<!-- Node18&#45;&gt;Node4 -->
<g id="edge31" class="edge"><title>Node18&#45;&gt;Node4</title>
<path fill="none" stroke="midnightblue" d="M785.688,-56.083C783.833,-48.9272 781.165,-38.6353 778.846,-29.6911"/>
<polygon fill="midnightblue" stroke="midnightblue" points="782.166,-28.5527 776.269,-19.7511 775.391,-30.3094 782.166,-28.5527"/>
</g>
<!-- Node18&#45;&gt;Node14 -->
<g id="edge33" class="edge"><title>Node18&#45;&gt;Node14</title>
<path fill="none" stroke="midnightblue" d="M815.571,-56.4435C845.792,-47.0645 894.34,-31.9978 927.171,-21.8089"/>
<polygon fill="midnightblue" stroke="midnightblue" points="928.305,-25.1219 936.818,-18.8151 926.23,-18.4364 928.305,-25.1219"/>
</g>
<!-- Node18&#45;&gt;Node19 -->
<g id="edge34" class="edge"><title>Node18&#45;&gt;Node19</title>
<path fill="none" stroke="midnightblue" d="M832.464,-56.4309C872.594,-48.4623 933.439,-35.8 995.444,-19.9771"/>
<polygon fill="midnightblue" stroke="midnightblue" points="996.593,-23.2956 1005.4,-17.4107 994.846,-16.5171 996.593,-23.2956"/>
</g>
</g>
</svg>
        <g id="navigator" transform="translate(0 0)" fill="#404254">
                <rect fill="#f2f5e9" fill-opacity="0.5" stroke="#606060" stroke-width=".5" x="0" y="0" width="60" height="60"/>
                <use id="zoomplus" xlink:href="#zoomPlus" x="17" y="9" onmousedown="handleZoom(evt,'in')"/>
                <use id="zoomminus" xlink:href="#zoomMin" x="42" y="9" onmousedown="handleZoom(evt,'out')"/>
                <use id="reset" xlink:href="#resetDef" x="30" y="36" onmousedown="handleReset()"/>
                <g id="arrowUp" xlink:href="#dirArrow" transform="translate(30 24)" onmousedown="handlePan(0,-1)">
                  <use xlink:href="#rim" fill="#404040">
                        <set attributeName="fill" to="#808080" begin="arrowUp.mouseover" end="arrowUp.mouseout"/>
                  </use>
                  <path fill="none" stroke="white" stroke-width="1.5" d="M0,-3.0v7 M-2.5,-0.5L0,-3.0L2.5,-0.5"/>
                </g>
                <g id="arrowRight" xlink:href="#dirArrow" transform="rotate(90) translate(36 -43)" onmousedown="handlePan(1,0)">
                  <use xlink:href="#rim" fill="#404040">
                        <set attributeName="fill" to="#808080" begin="arrowRight.mouseover" end="arrowRight.mouseout"/>
                  </use>
                  <path fill="none" stroke="white" stroke-width="1.5" d="M0,-3.0v7 M-2.5,-0.5L0,-3.0L2.5,-0.5"/>
                </g>
                <g id="arrowDown" xlink:href="#dirArrow" transform="rotate(180) translate(-30 -48)" onmousedown="handlePan(0,1)">
                  <use xlink:href="#rim" fill="#404040">
                        <set attributeName="fill" to="#808080" begin="arrowDown.mouseover" end="arrowDown.mouseout"/>
                  </use>
                  <path fill="none" stroke="white" stroke-width="1.5" d="M0,-3.0v7 M-2.5,-0.5L0,-3.0L2.5,-0.5"/>
                </g>
                <g id="arrowLeft" xlink:href="#dirArrow" transform="rotate(270) translate(-36 17)" onmousedown="handlePan(-1,0)">
                  <use xlink:href="#rim" fill="#404040">
                        <set attributeName="fill" to="#808080" begin="arrowLeft.mouseover" end="arrowLeft.mouseout"/>
                  </use>
                  <path fill="none" stroke="white" stroke-width="1.5" d="M0,-3.0v7 M-2.5,-0.5L0,-3.0L2.5,-0.5"/>
                </g>
        </g>
        <svg viewBox="0 0 15 15" width="100%" height="30px" preserveAspectRatio="xMaxYMin meet">
         <g id="arrow_out" transform="scale(0.3 0.3)">
          <a xlink:href="main_8cpp__incl_org.svg" target="_base">
           <rect id="button" ry="5" rx="5" y="6" x="6" height="38" width="38"
                fill="#f2f5e9" fill-opacity="0.5" stroke="#606060" stroke-width="1.0"/>
           <path id="arrow"
             d="M 11.500037,31.436501 C 11.940474,20.09759 22.043105,11.32322 32.158766,21.979434 L 37.068811,17.246167 C 37.068811,17.246167 37.088388,32 37.088388,32 L 22.160133,31.978069 C 22.160133,31.978069 26.997745,27.140456 26.997745,27.140456 C 18.528582,18.264221 13.291696,25.230495 11.500037,31.436501 z"
             style="fill:#404040;"/>
          </a>
         </g>
        </svg>
</svg>
