<?xml version="1.0" encoding="UTF-8" standalone="no"?>
<!DOCTYPE svg PUBLIC "-//W3C//DTD SVG 1.1//EN"
 "http://www.w3.org/Graphics/SVG/1.1/DTD/svg11.dtd">
<!-- Generated by graphviz version 2.38.0 (20140413.2041)
 -->
<!-- Title: main Pages: 1 -->
<!--zoomable 1223 -->
<svg id="main" version="1.1" xmlns="http://www.w3.org/2000/svg" xmlns:xlink="http://www.w3.org/1999/xlink" xml:space="preserve" onload="init(evt)">
<style type="text/css"><![CDATA[
.edge:hover path { stroke: red; }
.edge:hover polygon { stroke: red; fill: red; }
]]></style>
<script type="text/javascript"><![CDATA[
var edges = document.getElementsByTagName('g');
if (edges && edges.length) {
  for (var i=0;i<edges.length;i++) {
    if (edges[i].id.substr(0,4)=='edge') {
      edges[i].setAttribute('class','edge');
    }
  }
}
]]></script>
        <defs>
                <circle id="rim" cx="0" cy="0" r="7"/>
                <circle id="rim2" cx="0" cy="0" r="3.5"/>
                <g id="zoomPlus">
                        <use xlink:href="#rim" fill="#404040">
                                <set attributeName="fill" to="#808080" begin="zoomplus.mouseover" end="zoomplus.mouseout"/>
                        </use>
                        <path d="M-4,0h8M0,-4v8" fill="none" stroke="white" stroke-width="1.5" pointer-events="none"/>
                </g>
                <g id="zoomMin">
                        <use xlink:href="#rim" fill="#404040">
                                <set attributeName="fill" to="#808080" begin="zoomminus.mouseover" end="zoomminus.mouseout"/>
                        </use>
                        <path d="M-4,0h8" fill="none" stroke="white" stroke-width="1.5" pointer-events="none"/>
                </g>
                <g id="dirArrow">
                        <path fill="none" stroke="white" stroke-width="1.5" d="M0,-3.0v7 M-2.5,-0.5L0,-3.0L2.5,-0.5"/>
                </g>
               <g id="resetDef">
                       <use xlink:href="#rim2" fill="#404040">
                               <set attributeName="fill" to="#808080" begin="reset.mouseover" end="reset.mouseout"/>
                       </use>
               </g>
        </defs>

<script type="text/javascript">
var viewWidth = 639;
var viewHeight = 1223;
var sectionId = 'dynsection-3';
</script>
<script xlink:href="svgpan.js"/>
<svg id="graph" class="graph">
<g id="viewport">
<title>main</title>
<!-- Node8 -->
<g id="node1" class="node"><title>Node8</title>
<polygon fill="#bfbfbf" stroke="black" points="0,-619 0,-638 38,-638 38,-619 0,-619"/>
<text text-anchor="middle" x="19" y="-626" font-family="Helvetica,sans-Serif" font-size="10.00">main</text>
</g>
<!-- Node9 -->
<g id="node2" class="node"><title>Node9</title>
<g id="a_node2"><a xlink:href="main_8cpp.html#a9836f722bde1c9e1c9ed57233acd0594" target="_top" xlink:title="exibeMenu">
<polygon fill="none" stroke="black" points="130.5,-1195 130.5,-1214 194.5,-1214 194.5,-1195 130.5,-1195"/>
<text text-anchor="middle" x="162.5" y="-1202" font-family="Helvetica,sans-Serif" font-size="10.00">exibeMenu</text>
</a>
</g>
</g>
<!-- Node8&#45;&gt;Node9 -->
<g id="edge1" class="edge"><title>Node8&#45;&gt;Node9</title>
<path fill="none" stroke="midnightblue" d="M20.2648,-638.268C22.2734,-709.137 36.072,-1142.85 74,-1185.5 85.4625,-1198.39 103.429,-1203.68 120.106,-1205.53"/>
<polygon fill="midnightblue" stroke="midnightblue" points="120.025,-1209.03 130.255,-1206.27 120.538,-1202.05 120.025,-1209.03"/>
</g>
<!-- Node10 -->
<g id="node3" class="node"><title>Node10</title>
<g id="a_node3"><a xlink:href="class_processador_de_entradas.html#ae4a10fd2078e4235ff4f7bbdefc8966b" target="_top" xlink:title="Recebe uma entrada no formato string com valores de alturas ou durações e as separa em listas...">
<polygon fill="none" stroke="black" points="101,-1145.5 101,-1175.5 224,-1175.5 224,-1145.5 101,-1145.5"/>
<text text-anchor="start" x="109" y="-1163.5" font-family="Helvetica,sans-Serif" font-size="10.00">ProcessadorDeEntradas</text>
<text text-anchor="middle" x="162.5" y="-1152.5" font-family="Helvetica,sans-Serif" font-size="10.00">::separeEntradas</text>
</a>
</g>
</g>
<!-- Node8&#45;&gt;Node10 -->
<g id="edge2" class="edge"><title>Node8&#45;&gt;Node10</title>
<path fill="none" stroke="midnightblue" d="M20.3834,-638.234C23.1069,-705.266 40.397,-1096.97 74,-1136.5 78.8395,-1142.19 84.8899,-1146.6 91.5364,-1150"/>
<polygon fill="midnightblue" stroke="midnightblue" points="90.3429,-1153.3 100.911,-1154.05 93.1152,-1146.87 90.3429,-1153.3"/>
</g>
<!-- Node11 -->
<g id="node4" class="node"><title>Node11</title>
<g id="a_node4"><a xlink:href="class_processador_de_entradas.html#a05af11a333be752ca36e208bb836fa5f" target="_top" xlink:title="Retorna uma lista com as alturas no formato de cifras. ">
<polygon fill="none" stroke="black" points="101,-1096.5 101,-1126.5 224,-1126.5 224,-1096.5 101,-1096.5"/>
<text text-anchor="start" x="109" y="-1114.5" font-family="Helvetica,sans-Serif" font-size="10.00">ProcessadorDeEntradas</text>
<text text-anchor="middle" x="162.5" y="-1103.5" font-family="Helvetica,sans-Serif" font-size="10.00">::pegueAlturasCifradas</text>
</a>
</g>
</g>
<!-- Node8&#45;&gt;Node11 -->
<g id="edge3" class="edge"><title>Node8&#45;&gt;Node11</title>
<path fill="none" stroke="midnightblue" d="M19.7391,-638.342C18.3471,-698.459 13.9486,-1015.91 74,-1086.5 78.8563,-1092.21 84.9174,-1096.66 91.5699,-1100.12"/>
<polygon fill="midnightblue" stroke="midnightblue" points="90.3885,-1103.43 100.951,-1104.26 93.2132,-1097.02 90.3885,-1103.43"/>
</g>
<!-- Node12 -->
<g id="node5" class="node"><title>Node12</title>
<g id="a_node5"><a xlink:href="main_8cpp.html#ae84ab06a0db0e0fd55399529b97de6b6" target="_top" xlink:title="exibeLista">
<polygon fill="none" stroke="black" points="132,-1058 132,-1077 193,-1077 193,-1058 132,-1058"/>
<text text-anchor="middle" x="162.5" y="-1065" font-family="Helvetica,sans-Serif" font-size="10.00">exibeLista</text>
</a>
</g>
</g>
<!-- Node8&#45;&gt;Node12 -->
<g id="edge4" class="edge"><title>Node8&#45;&gt;Node12</title>
<path fill="none" stroke="midnightblue" d="M19.7956,-638.313C18.8103,-695.567 16.7175,-986.069 74,-1048.5 85.9234,-1061.49 104.464,-1066.7 121.415,-1068.47"/>
<polygon fill="midnightblue" stroke="midnightblue" points="121.476,-1071.99 131.69,-1069.17 121.95,-1065 121.476,-1071.99"/>
</g>
<!-- Node13 -->
<g id="node6" class="node"><title>Node13</title>
<g id="a_node6"><a xlink:href="class_gerenciador_de_memorias.html#a80af232df523f04f16cd7a7318f6c9c7" target="_top" xlink:title="Recebe uma lista de durações em inteiros e as adiciona na memória. ">
<polygon fill="none" stroke="black" points="97.5,-1008.5 97.5,-1038.5 227.5,-1038.5 227.5,-1008.5 97.5,-1008.5"/>
<text text-anchor="start" x="105.5" y="-1026.5" font-family="Helvetica,sans-Serif" font-size="10.00">GerenciadorDeMemorias</text>
<text text-anchor="middle" x="162.5" y="-1015.5" font-family="Helvetica,sans-Serif" font-size="10.00">::adicioneListaNaMemoria</text>
</a>
</g>
</g>
<!-- Node8&#45;&gt;Node13 -->
<g id="edge5" class="edge"><title>Node8&#45;&gt;Node13</title>
<path fill="none" stroke="midnightblue" d="M20.0283,-638.147C20.3791,-690.852 24.6451,-943.659 74,-999.5 78.0097,-1004.04 82.7879,-1007.75 88.0135,-1010.79"/>
<polygon fill="midnightblue" stroke="midnightblue" points="86.6546,-1014.02 97.1733,-1015.29 89.7412,-1007.74 86.6546,-1014.02"/>
</g>
<!-- Node14 -->
<g id="node7" class="node"><title>Node14</title>
<g id="a_node7"><a xlink:href="class_processador_de_entradas.html#ac689d2c34ec740d5f471747b6236adca" target="_top" xlink:title="Retorna uma lista com as durações informadas pelo usuário. ">
<polygon fill="none" stroke="black" points="101,-959.5 101,-989.5 224,-989.5 224,-959.5 101,-959.5"/>
<text text-anchor="start" x="109" y="-977.5" font-family="Helvetica,sans-Serif" font-size="10.00">ProcessadorDeEntradas</text>
<text text-anchor="middle" x="162.5" y="-966.5" font-family="Helvetica,sans-Serif" font-size="10.00">::pegueDuracoes</text>
</a>
</g>
</g>
<!-- Node8&#45;&gt;Node14 -->
<g id="edge6" class="edge"><title>Node8&#45;&gt;Node14</title>
<path fill="none" stroke="midnightblue" d="M20.276,-638.084C21.855,-686.274 31.2461,-901.686 74,-949.5 78.9232,-955.006 84.9663,-959.335 91.5561,-962.732"/>
<polygon fill="midnightblue" stroke="midnightblue" points="90.2645,-965.988 100.827,-966.812 93.0838,-959.581 90.2645,-965.988"/>
</g>
<!-- Node15 -->
<g id="node8" class="node"><title>Node15</title>
<g id="a_node8"><a xlink:href="main_8cpp.html#a451f3082da798ac883799705083e20ec" target="_top" xlink:title="resetLista">
<polygon fill="none" stroke="black" points="133,-921 133,-940 192,-940 192,-921 133,-921"/>
<text text-anchor="middle" x="162.5" y="-928" font-family="Helvetica,sans-Serif" font-size="10.00">resetLista</text>
</a>
</g>
</g>
<!-- Node8&#45;&gt;Node15 -->
<g id="edge7" class="edge"><title>Node8&#45;&gt;Node15</title>
<path fill="none" stroke="midnightblue" d="M20.4556,-638.172C22.7724,-683.132 34.7167,-871.211 74,-911.5 86.4919,-924.312 105.441,-929.443 122.514,-931.211"/>
<polygon fill="midnightblue" stroke="midnightblue" points="122.613,-934.726 132.828,-931.916 123.09,-927.742 122.613,-934.726"/>
</g>
<!-- Node16 -->
<g id="node9" class="node"><title>Node16</title>
<g id="a_node9"><a xlink:href="class_gerenciador_de_memorias.html#abf89381685340fda5afbe067219f83f3" target="_top" xlink:title="Exibe as listas na memória. ">
<polygon fill="none" stroke="black" points="98,-871.5 98,-901.5 227,-901.5 227,-871.5 98,-871.5"/>
<text text-anchor="start" x="106" y="-889.5" font-family="Helvetica,sans-Serif" font-size="10.00">GerenciadorDeMemorias</text>
<text text-anchor="middle" x="162.5" y="-878.5" font-family="Helvetica,sans-Serif" font-size="10.00">::mostreListasNaMemoria</text>
</a>
</g>
</g>
<!-- Node8&#45;&gt;Node16 -->
<g id="edge8" class="edge"><title>Node8&#45;&gt;Node16</title>
<path fill="none" stroke="midnightblue" d="M20.9515,-638.239C25.0337,-678.086 42.3144,-828.17 74,-861.5 78.1841,-865.901 83.0844,-869.544 88.3914,-872.558"/>
<polygon fill="midnightblue" stroke="midnightblue" points="87.128,-875.835 97.6521,-877.058 90.1873,-869.539 87.128,-875.835"/>
</g>
<!-- Node17 -->
<g id="node10" class="node"><title>Node17</title>
<g id="a_node10"><a xlink:href="main_8cpp.html#a77f97c42b75ec4894aafb02c4ddb7ec5" target="_top" xlink:title="vericaSeIDDaListaEValido">
<polygon fill="none" stroke="black" points="96,-833 96,-852 229,-852 229,-833 96,-833"/>
<text text-anchor="middle" x="162.5" y="-840" font-family="Helvetica,sans-Serif" font-size="10.00">vericaSeIDDaListaEValido</text>
</a>
</g>
</g>
<!-- Node8&#45;&gt;Node17 -->
<g id="edge9" class="edge"><title>Node8&#45;&gt;Node17</title>
<path fill="none" stroke="midnightblue" d="M19.6671,-638.429C19.1865,-669.697 22.1136,-767.089 74,-818.5 77.9863,-822.45 82.5576,-825.765 87.4739,-828.546"/>
<polygon fill="midnightblue" stroke="midnightblue" points="86.1192,-831.779 96.644,-832.996 89.1753,-825.481 86.1192,-831.779"/>
</g>
<!-- Node19 -->
<g id="node12" class="node"><title>Node19</title>
<g id="a_node12"><a xlink:href="class_gerenciador_de_memorias.html#a411d6bdaa5761f1bfff3034e13622ee9" target="_top" xlink:title="Verifica se uma lista está na memória. ">
<polygon fill="none" stroke="black" points="461,-723.5 461,-753.5 631,-753.5 631,-723.5 461,-723.5"/>
<text text-anchor="start" x="469" y="-741.5" font-family="Helvetica,sans-Serif" font-size="10.00">GerenciadorDeMemorias</text>
<text text-anchor="middle" x="546" y="-730.5" font-family="Helvetica,sans-Serif" font-size="10.00">::verifiqueSeListaExisteNaMemoria</text>
</a>
</g>
</g>
<!-- Node8&#45;&gt;Node19 -->
<g id="edge11" class="edge"><title>Node8&#45;&gt;Node19</title>
<path fill="none" stroke="midnightblue" d="M24.3253,-638.131C31.8912,-653.701 49.1267,-684.015 74,-697.5 106.208,-714.961 322.584,-728.009 450.576,-734.306"/>
<polygon fill="midnightblue" stroke="midnightblue" points="450.617,-737.812 460.775,-734.803 450.957,-730.821 450.617,-737.812"/>
</g>
<!-- Node20 -->
<g id="node13" class="node"><title>Node20</title>
<g id="a_node13"><a xlink:href="class_gerenciador_de_memorias.html#ae5b2e528aad843eed58fc65e7c4fc4a2" target="_top" xlink:title="Retorna uma lista numérica armazenada na memória. ">
<polygon fill="none" stroke="black" points="81.5,-657.5 81.5,-687.5 243.5,-687.5 243.5,-657.5 81.5,-657.5"/>
<text text-anchor="start" x="89.5" y="-675.5" font-family="Helvetica,sans-Serif" font-size="10.00">GerenciadorDeMemorias</text>
<text text-anchor="middle" x="162.5" y="-664.5" font-family="Helvetica,sans-Serif" font-size="10.00">::pegueListaNumericaDaMemoria</text>
</a>
</g>
</g>
<!-- Node8&#45;&gt;Node20 -->
<g id="edge12" class="edge"><title>Node8&#45;&gt;Node20</title>
<path fill="none" stroke="midnightblue" d="M38.402,-635.283C48.8002,-639.038 62.0681,-643.7 74,-647.5 81.4093,-649.86 89.204,-652.236 96.9619,-654.536"/>
<polygon fill="midnightblue" stroke="midnightblue" points="96.1565,-657.947 106.737,-657.4 98.125,-651.229 96.1565,-657.947"/>
</g>
<!-- Node21 -->
<g id="node14" class="node"><title>Node21</title>
<g id="a_node14"><a xlink:href="main_8cpp.html#a4e9bfcbc0fd0e4a5a4fdfacbfc84a103" target="_top" xlink:title="verificaOcorrenciaNegativos">
<polygon fill="none" stroke="black" points="92.5,-619 92.5,-638 232.5,-638 232.5,-619 92.5,-619"/>
<text text-anchor="middle" x="162.5" y="-626" font-family="Helvetica,sans-Serif" font-size="10.00">verificaOcorrenciaNegativos</text>
</a>
</g>
</g>
<!-- Node8&#45;&gt;Node21 -->
<g id="edge13" class="edge"><title>Node8&#45;&gt;Node21</title>
<path fill="none" stroke="midnightblue" d="M38.209,-628.5C49.768,-628.5 65.6137,-628.5 82.0955,-628.5"/>
<polygon fill="midnightblue" stroke="midnightblue" points="82.4073,-632 92.4073,-628.5 82.4072,-625 82.4073,-632"/>
</g>
<!-- Node22 -->
<g id="node15" class="node"><title>Node22</title>
<g id="a_node15"><a xlink:href="class_processador_de_listas.html#a39609c84bee80b081bbfe426c7766c73" target="_top" xlink:title="Sincroniza o tamanho de duas listas numéricas. ">
<polygon fill="none" stroke="black" points="92.5,-520.5 92.5,-550.5 232.5,-550.5 232.5,-520.5 92.5,-520.5"/>
<text text-anchor="start" x="100.5" y="-538.5" font-family="Helvetica,sans-Serif" font-size="10.00">ProcessadorDeListas</text>
<text text-anchor="middle" x="162.5" y="-527.5" font-family="Helvetica,sans-Serif" font-size="10.00">::sincronizeListasNumericas</text>
</a>
</g>
</g>
<!-- Node8&#45;&gt;Node22 -->
<g id="edge14" class="edge"><title>Node8&#45;&gt;Node22</title>
<path fill="none" stroke="midnightblue" d="M25.2089,-618.56C33.5173,-603.681 51.186,-575.741 74,-560.5 77.0708,-558.449 80.3102,-556.563 83.6621,-554.831"/>
<polygon fill="midnightblue" stroke="midnightblue" points="85.1714,-557.989 92.7581,-550.593 82.2154,-551.644 85.1714,-557.989"/>
</g>
<!-- Node26 -->
<g id="node19" class="node"><title>Node26</title>
<g id="a_node19"><a xlink:href="class_processador_de_listas.html#a9c839959d797222e3d7f3fb7beb88896" target="_top" xlink:title="Acumula (soma) os valores de uma lista. ">
<polygon fill="none" stroke="black" points="293,-373.5 293,-403.5 419,-403.5 419,-373.5 293,-373.5"/>
<text text-anchor="start" x="301" y="-391.5" font-family="Helvetica,sans-Serif" font-size="10.00">ProcessadorDeListas</text>
<text text-anchor="middle" x="356" y="-380.5" font-family="Helvetica,sans-Serif" font-size="10.00">::acumuleValoresDaLista</text>
</a>
</g>
</g>
<!-- Node8&#45;&gt;Node26 -->
<g id="edge30" class="edge"><title>Node8&#45;&gt;Node26</title>
<path fill="none" stroke="midnightblue" d="M21.5461,-618.923C25.6873,-596.497 39.1762,-540.301 74,-511.5 136.465,-459.838 184.709,-514.151 251,-467.5 274.589,-450.9 264.347,-431.357 287,-413.5 289.269,-411.711 291.678,-410.043 294.184,-408.486"/>
<polygon fill="midnightblue" stroke="midnightblue" points="295.946,-411.512 303.014,-403.619 292.567,-405.381 295.946,-411.512"/>
</g>
<!-- Node30 -->
<g id="node23" class="node"><title>Node30</title>
<g id="a_node23"><a xlink:href="class_processador_de_listas.html#a5f32d34c750af53d0e0db52f7cf1c147" target="_top" xlink:title="Calcula a derivada discreta (vetor intervalar) de uma lista. ">
<polygon fill="none" stroke="black" points="291.5,-324.5 291.5,-354.5 420.5,-354.5 420.5,-324.5 291.5,-324.5"/>
<text text-anchor="start" x="299.5" y="-342.5" font-family="Helvetica,sans-Serif" font-size="10.00">ProcessadorDeListas</text>
<text text-anchor="middle" x="356" y="-331.5" font-family="Helvetica,sans-Serif" font-size="10.00">::calculeDerivadaDiscreta</text>
</a>
</g>
</g>
<!-- Node8&#45;&gt;Node30 -->
<g id="edge27" class="edge"><title>Node8&#45;&gt;Node30</title>
<path fill="none" stroke="midnightblue" d="M20.0787,-618.708C20.8733,-590.439 27.2816,-508.126 74,-467.5 134.385,-414.99 186.817,-482.292 251,-434.5 279.06,-413.606 260.792,-387.674 287,-364.5 288.761,-362.943 290.627,-361.48 292.574,-360.106"/>
<polygon fill="midnightblue" stroke="midnightblue" points="294.834,-362.827 301.548,-354.631 291.188,-356.851 294.834,-362.827"/>
</g>
<!-- Node31 -->
<g id="node24" class="node"><title>Node31</title>
<g id="a_node24"><a xlink:href="class_gerenciador_de_memorias.html#ae8ab444730cfd79144e10073926fd92b" target="_top" xlink:title="Retorna uma lista alfanumérica armazenada na memória. ">
<polygon fill="none" stroke="black" points="74,-394.5 74,-424.5 251,-424.5 251,-394.5 74,-394.5"/>
<text text-anchor="start" x="82" y="-412.5" font-family="Helvetica,sans-Serif" font-size="10.00">GerenciadorDeMemorias</text>
<text text-anchor="middle" x="162.5" y="-401.5" font-family="Helvetica,sans-Serif" font-size="10.00">::pegueListaAlfanumericaDaMemoria</text>
</a>
</g>
</g>
<!-- Node8&#45;&gt;Node31 -->
<g id="edge23" class="edge"><title>Node8&#45;&gt;Node31</title>
<path fill="none" stroke="midnightblue" d="M19.823,-618.756C19.8054,-588.05 23.9558,-492.216 74,-439.5 77.5709,-435.738 81.6334,-432.449 86.0068,-429.571"/>
<polygon fill="midnightblue" stroke="midnightblue" points="87.8362,-432.556 94.7525,-424.53 84.3407,-426.492 87.8362,-432.556"/>
</g>
<!-- Node32 -->
<g id="node25" class="node"><title>Node32</title>
<g id="a_node25"><a xlink:href="class_processador_de_listas.html#a55820e47d04ab38190bdaf968a466398" target="_top" xlink:title="Faz associação um a um entre alturas e durações. ">
<polygon fill="none" stroke="black" points="95.5,-569.5 95.5,-599.5 229.5,-599.5 229.5,-569.5 95.5,-569.5"/>
<text text-anchor="start" x="103.5" y="-587.5" font-family="Helvetica,sans-Serif" font-size="10.00">ProcessadorDeListas</text>
<text text-anchor="middle" x="162.5" y="-576.5" font-family="Helvetica,sans-Serif" font-size="10.00">::associeAlturasEduracoes</text>
</a>
</g>
</g>
<!-- Node8&#45;&gt;Node32 -->
<g id="edge24" class="edge"><title>Node8&#45;&gt;Node32</title>
<path fill="none" stroke="midnightblue" d="M38.402,-621.717C48.8002,-617.962 62.0681,-613.3 74,-609.5 81.4093,-607.14 89.204,-604.764 96.9619,-602.464"/>
<polygon fill="midnightblue" stroke="midnightblue" points="98.125,-605.771 106.737,-599.6 96.1565,-599.053 98.125,-605.771"/>
</g>
<!-- Node33 -->
<g id="node26" class="node"><title>Node33</title>
<g id="a_node26"><a xlink:href="class_processador_de_entradas.html#a09e9759de7ceaedcb065c1b0123012a6" target="_top" xlink:title="Recebe uma lista de alturas em cifras e as converte em seus equivalentes numéricos. ">
<polygon fill="none" stroke="black" points="88.5,-334 88.5,-375 236.5,-375 236.5,-334 88.5,-334"/>
<text text-anchor="start" x="96.5" y="-363" font-family="Helvetica,sans-Serif" font-size="10.00">ProcessadorDeEntradas</text>
<text text-anchor="start" x="96.5" y="-352" font-family="Helvetica,sans-Serif" font-size="10.00">::convertaAlturasCifradasPara</text>
<text text-anchor="middle" x="162.5" y="-341" font-family="Helvetica,sans-Serif" font-size="10.00">NumeroMIDI</text>
</a>
</g>
</g>
<!-- Node8&#45;&gt;Node33 -->
<g id="edge28" class="edge"><title>Node8&#45;&gt;Node33</title>
<path fill="none" stroke="midnightblue" d="M20.8952,-618.955C24.8687,-578.486 42.1359,-421.503 74,-385.5 75.9526,-383.294 78.0726,-381.245 80.326,-379.341"/>
<polygon fill="midnightblue" stroke="midnightblue" points="82.4348,-382.135 88.4527,-373.415 78.3106,-376.479 82.4348,-382.135"/>
</g>
<!-- Node34 -->
<g id="node27" class="node"><title>Node34</title>
<g id="a_node27"><a xlink:href="class_processador_de_entradas.html#a41fe309cc0590a13cf6a28bdb3ccd0e1" target="_top" xlink:title="Retorna uma lista com as alturas convertidas em números MIDI. ">
<polygon fill="none" stroke="black" points="94.5,-284.5 94.5,-314.5 230.5,-314.5 230.5,-284.5 94.5,-284.5"/>
<text text-anchor="start" x="102.5" y="-302.5" font-family="Helvetica,sans-Serif" font-size="10.00">ProcessadorDeEntradas</text>
<text text-anchor="middle" x="162.5" y="-291.5" font-family="Helvetica,sans-Serif" font-size="10.00">::pegueAlturasNumeroMIDI</text>
</a>
</g>
</g>
<!-- Node8&#45;&gt;Node34 -->
<g id="edge29" class="edge"><title>Node8&#45;&gt;Node34</title>
<path fill="none" stroke="midnightblue" d="M20.379,-618.807C22.4035,-571.964 33.4192,-369.469 74,-324.5 77.3308,-320.809 81.1649,-317.648 85.3282,-314.942"/>
<polygon fill="midnightblue" stroke="midnightblue" points="87.2156,-317.898 94.2806,-310.002 83.8341,-311.769 87.2156,-317.898"/>
</g>
<!-- Node35 -->
<g id="node28" class="node"><title>Node35</title>
<g id="a_node28"><a xlink:href="class_processador_de_listas.html#a2fb8260d0e8d319b708bc54f59f41a3e" target="_top" xlink:title="ProcessadorDeListas\l::revertaLista">
<polygon fill="none" stroke="black" points="107.5,-235.5 107.5,-265.5 217.5,-265.5 217.5,-235.5 107.5,-235.5"/>
<text text-anchor="start" x="115.5" y="-253.5" font-family="Helvetica,sans-Serif" font-size="10.00">ProcessadorDeListas</text>
<text text-anchor="middle" x="162.5" y="-242.5" font-family="Helvetica,sans-Serif" font-size="10.00">::revertaLista</text>
</a>
</g>
</g>
<!-- Node8&#45;&gt;Node35 -->
<g id="edge31" class="edge"><title>Node8&#45;&gt;Node35</title>
<path fill="none" stroke="midnightblue" d="M20.1147,-618.995C20.9195,-568.153 27.18,-328.652 74,-275.5 80.3555,-268.285 88.6344,-263.087 97.563,-259.356"/>
<polygon fill="midnightblue" stroke="midnightblue" points="98.8047,-262.629 107.049,-255.975 96.4547,-256.036 98.8047,-262.629"/>
</g>
<!-- Node36 -->
<g id="node29" class="node"><title>Node36</title>
<g id="a_node29"><a xlink:href="class_escriba.html#acbcfa8cc9829b93cc2ba927cd4282e38" target="_top" xlink:title="Separa alturas e durações. ">
<polygon fill="none" stroke="black" points="98.5,-186.5 98.5,-216.5 226.5,-216.5 226.5,-186.5 98.5,-186.5"/>
<text text-anchor="start" x="106.5" y="-204.5" font-family="Helvetica,sans-Serif" font-size="10.00">Escriba::separeAlturasDe</text>
<text text-anchor="middle" x="162.5" y="-193.5" font-family="Helvetica,sans-Serif" font-size="10.00">Duracoes</text>
</a>
</g>
</g>
<!-- Node8&#45;&gt;Node36 -->
<g id="edge32" class="edge"><title>Node8&#45;&gt;Node36</title>
<path fill="none" stroke="midnightblue" d="M19.9187,-618.798C19.652,-563.433 21.0289,-287.754 74,-226.5 78.2726,-221.559 83.4473,-217.562 89.1213,-214.333"/>
<polygon fill="midnightblue" stroke="midnightblue" points="90.902,-217.361 98.3907,-209.866 87.8628,-211.055 90.902,-217.361"/>
</g>
<!-- Node37 -->
<g id="node30" class="node"><title>Node37</title>
<g id="a_node30"><a xlink:href="class_escriba.html#a8b90bd48a8607486a4471d7f287cdc91" target="_top" xlink:title="Substitui uma altura e duração no dicionário de durações. ">
<polygon fill="none" stroke="black" points="82,-126 82,-167 243,-167 243,-126 82,-126"/>
<text text-anchor="start" x="90" y="-155" font-family="Helvetica,sans-Serif" font-size="10.00">Escriba::substituiAltura</text>
<text text-anchor="start" x="90" y="-144" font-family="Helvetica,sans-Serif" font-size="10.00">CoringaDoDicionarioDeDuracoes</text>
<text text-anchor="middle" x="162.5" y="-133" font-family="Helvetica,sans-Serif" font-size="10.00">String</text>
</a>
</g>
</g>
<!-- Node8&#45;&gt;Node37 -->
<g id="edge33" class="edge"><title>Node8&#45;&gt;Node37</title>
<path fill="none" stroke="midnightblue" d="M19.8223,-618.857C18.9272,-559.949 16.9793,-248.776 74,-177.5 74.9753,-176.281 76.0021,-175.11 77.0751,-173.984"/>
<polygon fill="midnightblue" stroke="midnightblue" points="79.5804,-176.442 84.7711,-167.206 74.9536,-171.189 79.5804,-176.442"/>
</g>
<!-- Node38 -->
<g id="node31" class="node"><title>Node38</title>
<g id="a_node31"><a xlink:href="class_escriba.html#adaadbde20bec61782a7414f36e96aec0" target="_top" xlink:title="Gera o arquivo de saída do Lilypond. ">
<polygon fill="none" stroke="black" points="91,-88 91,-107 234,-107 234,-88 91,-88"/>
<text text-anchor="middle" x="162.5" y="-95" font-family="Helvetica,sans-Serif" font-size="10.00">Escriba::gereArquivoLilypond</text>
</a>
</g>
</g>
<!-- Node8&#45;&gt;Node38 -->
<g id="edge34" class="edge"><title>Node8&#45;&gt;Node38</title>
<path fill="none" stroke="midnightblue" d="M20.3544,-618.669C22.8824,-550.972 39.0905,-155.428 74,-116.5 76.4081,-113.815 79.0985,-111.46 82.0002,-109.398"/>
<polygon fill="midnightblue" stroke="midnightblue" points="83.8074,-112.396 90.6785,-104.331 80.2779,-106.351 83.8074,-112.396"/>
</g>
<!-- Node39 -->
<g id="node32" class="node"><title>Node39</title>
<g id="a_node32"><a xlink:href="class_escriba.html#a6ef6d0ef9305791f077a004ae985bf2b" target="_top" xlink:title="Executa o Lilypond. ">
<polygon fill="none" stroke="black" points="105.5,-50 105.5,-69 219.5,-69 219.5,-50 105.5,-50"/>
<text text-anchor="middle" x="162.5" y="-57" font-family="Helvetica,sans-Serif" font-size="10.00">Escriba::inicieLilypond</text>
</a>
</g>
</g>
<!-- Node8&#45;&gt;Node39 -->
<g id="edge35" class="edge"><title>Node8&#45;&gt;Node39</title>
<path fill="none" stroke="midnightblue" d="M20.2738,-618.854C22.3467,-548.874 36.5185,-120.601 74,-78.5 79.7949,-71.9909 87.2481,-67.4215 95.3553,-64.2544"/>
<polygon fill="midnightblue" stroke="midnightblue" points="96.6455,-67.5168 105.113,-61.1485 94.5223,-60.8466 96.6455,-67.5168"/>
</g>
<!-- Node40 -->
<g id="node33" class="node"><title>Node40</title>
<g id="a_node33"><a xlink:href="class_gerenciador_de_memorias.html#a358f5f3441bae8891f6613ac358ffcf8" target="_top" xlink:title="GerenciadorDeMemorias\l::escrevaParaArquivo">
<polygon fill="none" stroke="black" points="100,-0.5 100,-30.5 225,-30.5 225,-0.5 100,-0.5"/>
<text text-anchor="start" x="108" y="-18.5" font-family="Helvetica,sans-Serif" font-size="10.00">GerenciadorDeMemorias</text>
<text text-anchor="middle" x="162.5" y="-7.5" font-family="Helvetica,sans-Serif" font-size="10.00">::escrevaParaArquivo</text>
</a>
</g>
</g>
<!-- Node8&#45;&gt;Node40 -->
<g id="edge36" class="edge"><title>Node8&#45;&gt;Node40</title>
<path fill="none" stroke="midnightblue" d="M20.2425,-618.686C22.1341,-545.541 35.4873,-86.9697 74,-40.5 78.5382,-35.0242 84.1859,-30.7011 90.4126,-27.2947"/>
<polygon fill="midnightblue" stroke="midnightblue" points="92.2682,-30.2936 99.888,-22.9323 89.3407,-23.9351 92.2682,-30.2936"/>
</g>
<!-- Node41 -->
<g id="node34" class="node"><title>Node41</title>
<g id="a_node34"><a xlink:href="class_gerenciador_de_memorias.html#a7d3cfcc42ddd63b0f34eb77282e7438f" target="_top" xlink:title="GerenciadorDeMemorias\l::desfazer">
<polygon fill="none" stroke="black" points="100,-745.5 100,-775.5 225,-775.5 225,-745.5 100,-745.5"/>
<text text-anchor="start" x="108" y="-763.5" font-family="Helvetica,sans-Serif" font-size="10.00">GerenciadorDeMemorias</text>
<text text-anchor="middle" x="162.5" y="-752.5" font-family="Helvetica,sans-Serif" font-size="10.00">::desfazer</text>
</a>
</g>
</g>
<!-- Node8&#45;&gt;Node41 -->
<g id="edge37" class="edge"><title>Node8&#45;&gt;Node41</title>
<path fill="none" stroke="midnightblue" d="M22.5008,-638.17C28.1901,-658.278 43.9909,-704.857 74,-730.5 79.0858,-734.846 84.8332,-738.572 90.8924,-741.764"/>
<polygon fill="midnightblue" stroke="midnightblue" points="89.4177,-744.938 99.952,-746.07 92.4227,-738.616 89.4177,-744.938"/>
</g>
<!-- Node42 -->
<g id="node35" class="node"><title>Node42</title>
<g id="a_node35"><a xlink:href="class_gerenciador_de_memorias.html#a45757df4d2c6e9d59bc3088f7cd2c1ce" target="_top" xlink:title="Remove uma lista da memória. ">
<polygon fill="none" stroke="black" points="293.5,-745.5 293.5,-775.5 418.5,-775.5 418.5,-745.5 293.5,-745.5"/>
<text text-anchor="start" x="301.5" y="-763.5" font-family="Helvetica,sans-Serif" font-size="10.00">GerenciadorDeMemorias</text>
<text text-anchor="middle" x="356" y="-752.5" font-family="Helvetica,sans-Serif" font-size="10.00">::deleteDaMemoria</text>
</a>
</g>
</g>
<!-- Node8&#45;&gt;Node42 -->
<g id="edge40" class="edge"><title>Node8&#45;&gt;Node42</title>
<path fill="none" stroke="midnightblue" d="M19.8298,-638.073C19.9108,-666.425 24.4923,-750.174 74,-785.5 145.567,-836.566 254.93,-803.725 313.897,-779.54"/>
<polygon fill="midnightblue" stroke="midnightblue" points="315.403,-782.704 323.261,-775.598 312.686,-776.252 315.403,-782.704"/>
</g>
<!-- Node18 -->
<g id="node11" class="node"><title>Node18</title>
<g id="a_node11"><a xlink:href="class_gerenciador_de_memorias.html#a7d330b897726fe95d0e95460e8f34f2c" target="_top" xlink:title="Retorna o último id válido da memória. ">
<polygon fill="none" stroke="black" points="293.5,-827.5 293.5,-857.5 418.5,-857.5 418.5,-827.5 293.5,-827.5"/>
<text text-anchor="start" x="301.5" y="-845.5" font-family="Helvetica,sans-Serif" font-size="10.00">GerenciadorDeMemorias</text>
<text text-anchor="middle" x="356" y="-834.5" font-family="Helvetica,sans-Serif" font-size="10.00">::pegueUltimoIdValido</text>
</a>
</g>
</g>
<!-- Node17&#45;&gt;Node18 -->
<g id="edge10" class="edge"><title>Node17&#45;&gt;Node18</title>
<path fill="none" stroke="midnightblue" d="M229.136,-842.5C246.513,-842.5 265.364,-842.5 283.057,-842.5"/>
<polygon fill="midnightblue" stroke="midnightblue" points="283.321,-846 293.321,-842.5 283.321,-839 283.321,-846"/>
</g>
<!-- Node23 -->
<g id="node16" class="node"><title>Node23</title>
<g id="a_node16"><a xlink:href="class_processador_de_listas.html#a868215a0623d68b702f804615674f07d" target="_top" xlink:title="Calcula o Mínimo Múltiplo Comum (MMC). ">
<polygon fill="none" stroke="black" points="287,-619 287,-638 425,-638 425,-619 287,-619"/>
<text text-anchor="middle" x="356" y="-626" font-family="Helvetica,sans-Serif" font-size="10.00">ProcessadorDeListas::mmc</text>
</a>
</g>
</g>
<!-- Node22&#45;&gt;Node23 -->
<g id="edge15" class="edge"><title>Node22&#45;&gt;Node23</title>
<path fill="none" stroke="midnightblue" d="M232.841,-550.565C239.251,-553.34 245.423,-556.621 251,-560.5 273.185,-575.931 264.77,-594.134 287,-609.5 289.912,-611.513 293.031,-613.313 296.276,-614.923"/>
<polygon fill="midnightblue" stroke="midnightblue" points="295.109,-618.231 305.677,-618.977 297.88,-611.803 295.109,-618.231"/>
</g>
<!-- Node24 -->
<g id="node17" class="node"><title>Node24</title>
<g id="a_node17"><a xlink:href="class_processador_de_listas.html#abc7452bd3ee8819e996fb83c59173bf2" target="_top" xlink:title="ProcessadorDeListas\l::coeficienteDeRepeticoes">
<polygon fill="none" stroke="black" points="290,-520.5 290,-550.5 422,-550.5 422,-520.5 290,-520.5"/>
<text text-anchor="start" x="298" y="-538.5" font-family="Helvetica,sans-Serif" font-size="10.00">ProcessadorDeListas</text>
<text text-anchor="middle" x="356" y="-527.5" font-family="Helvetica,sans-Serif" font-size="10.00">::coeficienteDeRepeticoes</text>
</a>
</g>
</g>
<!-- Node22&#45;&gt;Node24 -->
<g id="edge16" class="edge"><title>Node22&#45;&gt;Node24</title>
<path fill="none" stroke="midnightblue" d="M232.636,-535.5C247.928,-535.5 264.203,-535.5 279.726,-535.5"/>
<polygon fill="midnightblue" stroke="midnightblue" points="279.799,-539 289.799,-535.5 279.799,-532 279.799,-539"/>
</g>
<!-- Node25 -->
<g id="node18" class="node"><title>Node25</title>
<g id="a_node18"><a xlink:href="class_processador_de_listas.html#a973e3fa18e8101ad289db6d970f9333c" target="_top" xlink:title="Desdobra/Repete uma lista. ">
<polygon fill="none" stroke="black" points="301,-657.5 301,-687.5 411,-687.5 411,-657.5 301,-657.5"/>
<text text-anchor="start" x="309" y="-675.5" font-family="Helvetica,sans-Serif" font-size="10.00">ProcessadorDeListas</text>
<text text-anchor="middle" x="356" y="-664.5" font-family="Helvetica,sans-Serif" font-size="10.00">::desdobreListas</text>
</a>
</g>
</g>
<!-- Node22&#45;&gt;Node25 -->
<g id="edge17" class="edge"><title>Node22&#45;&gt;Node25</title>
<path fill="none" stroke="midnightblue" d="M232.591,-548.603C239.277,-551.756 245.577,-555.662 251,-560.5 282.228,-588.355 256.824,-618.508 287,-647.5 288.658,-649.093 290.426,-650.586 292.28,-651.985"/>
<polygon fill="midnightblue" stroke="midnightblue" points="290.583,-655.056 300.883,-657.538 294.379,-649.174 290.583,-655.056"/>
</g>
<!-- Node22&#45;&gt;Node26 -->
<g id="edge18" class="edge"><title>Node22&#45;&gt;Node26</title>
<path fill="none" stroke="midnightblue" d="M228.825,-520.361C236.947,-516.481 244.623,-511.611 251,-505.5 282.703,-475.122 255.633,-444.225 287,-413.5 288.483,-412.048 290.057,-410.679 291.704,-409.389"/>
<polygon fill="midnightblue" stroke="midnightblue" points="294.073,-412.017 300.47,-403.571 290.203,-406.184 294.073,-412.017"/>
</g>
<!-- Node27 -->
<g id="node20" class="node"><title>Node27</title>
<g id="a_node20"><a xlink:href="class_processador_de_listas.html#af1505b17c1556665a2ecb5247188d4c4" target="_top" xlink:title="Dadas duas listas, realiza uma junção entre elas (semelhante ao append()). ">
<polygon fill="none" stroke="black" points="301,-471.5 301,-501.5 411,-501.5 411,-471.5 301,-471.5"/>
<text text-anchor="start" x="309" y="-489.5" font-family="Helvetica,sans-Serif" font-size="10.00">ProcessadorDeListas</text>
<text text-anchor="middle" x="356" y="-478.5" font-family="Helvetica,sans-Serif" font-size="10.00">::junteListas</text>
</a>
</g>
</g>
<!-- Node22&#45;&gt;Node27 -->
<g id="edge19" class="edge"><title>Node22&#45;&gt;Node27</title>
<path fill="none" stroke="midnightblue" d="M222.258,-520.465C244.094,-514.878 268.963,-508.515 291.227,-502.818"/>
<polygon fill="midnightblue" stroke="midnightblue" points="292.101,-506.207 300.922,-500.337 290.366,-499.425 292.101,-506.207"/>
</g>
<!-- Node28 -->
<g id="node21" class="node"><title>Node28</title>
<g id="a_node21"><a xlink:href="class_processador_de_listas.html#ae9e4af0b3ba22ece83efef5924173a1c" target="_top" xlink:title="Dada uma lista contendo repetições de elementos, faz uma remoção desses valores. ">
<polygon fill="none" stroke="black" points="301,-422.5 301,-452.5 411,-452.5 411,-422.5 301,-422.5"/>
<text text-anchor="start" x="309" y="-440.5" font-family="Helvetica,sans-Serif" font-size="10.00">ProcessadorDeListas</text>
<text text-anchor="middle" x="356" y="-429.5" font-family="Helvetica,sans-Serif" font-size="10.00">::removaRepeticoes</text>
</a>
</g>
</g>
<!-- Node22&#45;&gt;Node28 -->
<g id="edge20" class="edge"><title>Node22&#45;&gt;Node28</title>
<path fill="none" stroke="midnightblue" d="M222.116,-520.373C232.217,-516.404 242.265,-511.502 251,-505.5 271.542,-491.385 266.614,-476.841 287,-462.5 289.675,-460.618 292.508,-458.861 295.439,-457.222"/>
<polygon fill="midnightblue" stroke="midnightblue" points="297.124,-460.292 304.468,-452.656 293.965,-454.046 297.124,-460.292"/>
</g>
<!-- Node29 -->
<g id="node22" class="node"><title>Node29</title>
<g id="a_node22"><a xlink:href="class_processador_de_listas.html#a0c2160bdd962834db2929a6f8a9acd7a" target="_top" xlink:title="Ordena listas. ">
<polygon fill="none" stroke="black" points="301,-569.5 301,-599.5 411,-599.5 411,-569.5 301,-569.5"/>
<text text-anchor="start" x="309" y="-587.5" font-family="Helvetica,sans-Serif" font-size="10.00">ProcessadorDeListas</text>
<text text-anchor="middle" x="356" y="-576.5" font-family="Helvetica,sans-Serif" font-size="10.00">::ordeneLista</text>
</a>
</g>
</g>
<!-- Node22&#45;&gt;Node29 -->
<g id="edge21" class="edge"><title>Node22&#45;&gt;Node29</title>
<path fill="none" stroke="midnightblue" d="M222.258,-550.535C244.094,-556.122 268.963,-562.485 291.227,-568.182"/>
<polygon fill="midnightblue" stroke="midnightblue" points="290.366,-571.575 300.922,-570.663 292.101,-564.793 290.366,-571.575"/>
</g>
<!-- Node22&#45;&gt;Node30 -->
<g id="edge22" class="edge"><title>Node22&#45;&gt;Node30</title>
<path fill="none" stroke="midnightblue" d="M190.615,-520.253C209.878,-508.18 235.056,-489.684 251,-467.5 279.302,-428.123 252.987,-399.064 287,-364.5 288.423,-363.054 289.936,-361.692 291.522,-360.407"/>
<polygon fill="midnightblue" stroke="midnightblue" points="293.712,-363.15 299.99,-354.615 289.76,-357.372 293.712,-363.15"/>
</g>
<!-- Node32&#45;&gt;Node23 -->
<g id="edge25" class="edge"><title>Node32&#45;&gt;Node23</title>
<path fill="none" stroke="midnightblue" d="M228.868,-599.519C253.313,-605.136 280.707,-611.43 303.703,-616.714"/>
<polygon fill="midnightblue" stroke="midnightblue" points="303.07,-620.159 313.599,-618.988 304.637,-613.337 303.07,-620.159"/>
</g>
<!-- Node32&#45;&gt;Node25 -->
<g id="edge26" class="edge"><title>Node32&#45;&gt;Node25</title>
<path fill="none" stroke="midnightblue" d="M229.628,-599.226C237.091,-602.09 244.382,-605.484 251,-609.5 270.89,-621.568 267.57,-634.705 287,-647.5 289.925,-649.426 293.018,-651.229 296.208,-652.913"/>
<polygon fill="midnightblue" stroke="midnightblue" points="294.869,-656.153 305.396,-657.346 297.91,-649.848 294.869,-656.153"/>
</g>
<!-- Node41&#45;&gt;Node42 -->
<g id="edge38" class="edge"><title>Node41&#45;&gt;Node42</title>
<path fill="none" stroke="midnightblue" d="M225.146,-760.5C243.682,-760.5 264.18,-760.5 283.308,-760.5"/>
<polygon fill="midnightblue" stroke="midnightblue" points="283.47,-764 293.47,-760.5 283.47,-757 283.47,-764"/>
</g>
<!-- Node42&#45;&gt;Node19 -->
<g id="edge39" class="edge"><title>Node42&#45;&gt;Node19</title>
<path fill="none" stroke="midnightblue" d="M418.558,-753.296C428.889,-752.087 439.815,-750.809 450.746,-749.53"/>
<polygon fill="midnightblue" stroke="midnightblue" points="451.244,-752.995 460.769,-748.357 450.43,-746.043 451.244,-752.995"/>
</g>
</g>
</svg>
        <g id="navigator" transform="translate(0 0)" fill="#404254">
                <rect fill="#f2f5e9" fill-opacity="0.5" stroke="#606060" stroke-width=".5" x="0" y="0" width="60" height="60"/>
                <use id="zoomplus" xlink:href="#zoomPlus" x="17" y="9" onmousedown="handleZoom(evt,'in')"/>
                <use id="zoomminus" xlink:href="#zoomMin" x="42" y="9" onmousedown="handleZoom(evt,'out')"/>
                <use id="reset" xlink:href="#resetDef" x="30" y="36" onmousedown="handleReset()"/>
                <g id="arrowUp" xlink:href="#dirArrow" transform="translate(30 24)" onmousedown="handlePan(0,-1)">
                  <use xlink:href="#rim" fill="#404040">
                        <set attributeName="fill" to="#808080" begin="arrowUp.mouseover" end="arrowUp.mouseout"/>
                  </use>
                  <path fill="none" stroke="white" stroke-width="1.5" d="M0,-3.0v7 M-2.5,-0.5L0,-3.0L2.5,-0.5"/>
                </g>
                <g id="arrowRight" xlink:href="#dirArrow" transform="rotate(90) translate(36 -43)" onmousedown="handlePan(1,0)">
                  <use xlink:href="#rim" fill="#404040">
                        <set attributeName="fill" to="#808080" begin="arrowRight.mouseover" end="arrowRight.mouseout"/>
                  </use>
                  <path fill="none" stroke="white" stroke-width="1.5" d="M0,-3.0v7 M-2.5,-0.5L0,-3.0L2.5,-0.5"/>
                </g>
                <g id="arrowDown" xlink:href="#dirArrow" transform="rotate(180) translate(-30 -48)" onmousedown="handlePan(0,1)">
                  <use xlink:href="#rim" fill="#404040">
                        <set attributeName="fill" to="#808080" begin="arrowDown.mouseover" end="arrowDown.mouseout"/>
                  </use>
                  <path fill="none" stroke="white" stroke-width="1.5" d="M0,-3.0v7 M-2.5,-0.5L0,-3.0L2.5,-0.5"/>
                </g>
                <g id="arrowLeft" xlink:href="#dirArrow" transform="rotate(270) translate(-36 17)" onmousedown="handlePan(-1,0)">
                  <use xlink:href="#rim" fill="#404040">
                        <set attributeName="fill" to="#808080" begin="arrowLeft.mouseover" end="arrowLeft.mouseout"/>
                  </use>
                  <path fill="none" stroke="white" stroke-width="1.5" d="M0,-3.0v7 M-2.5,-0.5L0,-3.0L2.5,-0.5"/>
                </g>
        </g>
        <svg viewBox="0 0 15 15" width="100%" height="30px" preserveAspectRatio="xMaxYMin meet">
         <g id="arrow_out" transform="scale(0.3 0.3)">
          <a xlink:href="main_8cpp_ae66f6b31b5ad750f1fe042a706a4e3d4_cgraph_org.svg" target="_base">
           <rect id="button" ry="5" rx="5" y="6" x="6" height="38" width="38"
                fill="#f2f5e9" fill-opacity="0.5" stroke="#606060" stroke-width="1.0"/>
           <path id="arrow"
             d="M 11.500037,31.436501 C 11.940474,20.09759 22.043105,11.32322 32.158766,21.979434 L 37.068811,17.246167 C 37.068811,17.246167 37.088388,32 37.088388,32 L 22.160133,31.978069 C 22.160133,31.978069 26.997745,27.140456 26.997745,27.140456 C 18.528582,18.264221 13.291696,25.230495 11.500037,31.436501 z"
             style="fill:#404040;"/>
          </a>
         </g>
        </svg>
</svg>
